# 3ds Max Wavefront OBJ Exporter v0.97b - (c)2007 guruware
# File Created: 17.10.2017 17:29:22

mtllib bezier_cabinet.mtl

#
# object bezier_cabinet
#

v  -20.1290 3.9995 55.3596
v  -20.1290 4.0000 -55.3597
v  -20.1290 0.0005 -55.3597
v  -20.1290 -0.0000 55.3596
v  20.3729 3.9995 55.3596
v  20.3729 -0.0000 55.3596
v  20.3730 4.0000 -55.3597
v  20.3730 0.0005 -55.3597
v  22.8500 8.9995 55.3596
v  22.8500 9.0000 -55.3597
v  -22.8500 9.0000 -55.3597
v  -22.8500 8.9995 55.3596
v  22.8500 3.9995 55.3596
v  -22.8500 3.9995 55.3596
v  22.8500 4.0000 -55.3597
v  -22.8500 4.0000 -55.3597
v  22.8500 199.1000 58.3596
v  22.8500 199.1000 55.3596
v  -22.8500 199.1000 55.3596
v  -22.8500 199.1000 58.3596
v  22.8499 3.9995 58.3596
v  -22.8501 3.9995 58.3596
v  22.8499 3.9995 55.3596
v  -22.8501 3.9995 55.3596
v  22.8500 199.1005 -55.3596
v  22.8500 199.1005 -58.3596
v  -22.8500 199.1005 -58.3596
v  -22.8500 199.1005 -55.3596
v  22.8500 4.0000 -55.3596
v  -22.8500 4.0000 -55.3596
v  22.8500 4.0000 -58.3596
v  -22.8500 4.0000 -58.3596
v  22.8500 199.1000 55.3595
v  22.8500 199.1000 -55.3597
v  -22.8500 199.1000 -55.3597
v  -22.8500 199.1000 55.3595
v  22.8500 194.1000 55.3595
v  -22.8500 194.1000 55.3595
v  22.8500 194.1000 -55.3597
v  -22.8500 194.1000 -55.3597
v  -22.0725 194.1000 55.3595
v  -22.0725 194.1000 -55.3597
v  -22.0725 8.9995 -55.3596
v  -22.0725 8.9995 55.3596
v  -20.0725 194.1000 -55.3597
v  -20.0725 194.1000 55.3595
v  -20.0725 8.9995 55.3596
v  -20.0725 8.9995 -55.3596
v  22.8500 193.9207 0.1094
v  22.5500 193.9207 0.4094
v  22.5500 193.9207 2.6094
v  22.8500 193.9207 2.6094
v  17.8500 193.9207 0.1094
v  17.8500 193.9207 0.4094
v  22.8500 9.5207 0.1094
v  22.8500 9.5207 2.6094
v  17.8500 9.5207 0.1094
v  17.8500 9.5207 0.4094
v  22.5500 9.5207 0.4094
v  22.5500 9.5207 2.6094
v  20.3500 193.9207 55.3597
v  17.8500 193.9207 55.3597
v  17.8500 9.5207 55.3597
v  20.3500 9.5207 55.3597
v  20.3500 193.9207 0.4093
v  20.3500 9.5207 0.4093
v  17.8500 193.9207 0.4093
v  17.8500 9.5207 0.4093
v  22.8498 193.9212 -0.0456
v  22.8498 193.9212 -2.5456
v  22.5498 193.9212 -2.5456
v  22.5498 193.9212 -0.3456
v  17.8498 193.9212 -0.0456
v  17.8498 193.9212 -0.3456
v  22.8500 9.5212 -0.0456
v  22.8500 9.5212 -2.5456
v  17.8500 9.5212 -0.0456
v  17.8500 9.5212 -0.3456
v  22.5500 9.5212 -0.3456
v  22.5500 9.5212 -2.5456
v  20.3498 193.9212 -55.2961
v  20.3500 9.5212 -55.2961
v  17.8500 9.5212 -55.2961
v  17.8498 193.9212 -55.2961
v  20.3498 193.9212 -0.3457
v  20.3500 9.5212 -0.3457
v  17.8498 193.9212 -0.3457
v  17.8500 9.5212 -0.3457
# 88 vertices

vn -1.0000 -0.0000 -0.0000
vn -0.0000 -0.0000 1.0000
vn 1.0000 0.0000 0.0000
vn 0.0000 -0.0000 -1.0000
vn 0.0000 1.0000 0.0000
vn -0.0000 0.0000 1.0000
vn 0.0000 0.0000 -1.0000
vn -1.0000 0.0000 -0.0000
vn 0.0000 1.0000 -0.0000
vn 1.0000 -0.0000 0.0000
vn 0.0000 -1.0000 -0.0000
# 11 vertex normals

vt 0.4024 0.7739 0.0000
vt 0.6200 0.7739 0.0000
vt 0.6200 0.7818 0.0000
vt 0.4024 0.7818 0.0000
vt 0.8967 0.0503 0.0000
vt 0.9763 0.0503 0.0000
vt 0.9763 0.0581 0.0000
vt 0.8967 0.0581 0.0000
vt 0.6397 0.7436 0.0000
vt 0.8573 0.7436 0.0000
vt 0.8573 0.7515 0.0000
vt 0.6397 0.7515 0.0000
vt 0.8967 0.0200 0.0000
vt 0.9763 0.0200 0.0000
vt 0.9763 0.0279 0.0000
vt 0.8967 0.0279 0.0000
vt 0.2372 0.6933 0.0000
vt 0.0196 0.6933 0.0000
vt 0.0196 0.6035 0.0000
vt 0.2372 0.6035 0.0000
vt 0.7871 0.0904 0.0000
vt 0.7871 0.0805 0.0000
vt 0.8769 0.0805 0.0000
vt 0.8769 0.0904 0.0000
vt 0.8769 0.0503 0.0000
vt 0.8769 0.0601 0.0000
vt 0.7871 0.0601 0.0000
vt 0.7871 0.0503 0.0000
vt 0.7315 0.6138 0.0000
vt 0.7315 0.6040 0.0000
vt 0.9491 0.6040 0.0000
vt 0.9491 0.6138 0.0000
vt 0.0196 0.7436 0.0000
vt 0.2372 0.7436 0.0000
vt 0.2372 0.7534 0.0000
vt 0.0196 0.7534 0.0000
vt 0.8769 0.1675 0.0000
vt 0.8769 0.1734 0.0000
vt 0.7871 0.1734 0.0000
vt 0.7871 0.1675 0.0000
vt 0.4230 0.4942 0.0000
vt 0.8065 0.4942 0.0000
vt 0.8065 0.5840 0.0000
vt 0.4230 0.5840 0.0000
vt 0.4031 0.5840 0.0000
vt 0.0197 0.5840 0.0000
vt 0.0197 0.4942 0.0000
vt 0.4031 0.4942 0.0000
vt 0.0197 0.8296 0.0000
vt 0.4031 0.8296 0.0000
vt 0.4031 0.8355 0.0000
vt 0.0197 0.8355 0.0000
vt 0.4031 0.8032 0.0000
vt 0.4031 0.8091 0.0000
vt 0.0197 0.8091 0.0000
vt 0.0197 0.8032 0.0000
vt 0.8769 0.1411 0.0000
vt 0.8769 0.1470 0.0000
vt 0.7871 0.1470 0.0000
vt 0.7871 0.1411 0.0000
vt 0.4230 0.3848 0.0000
vt 0.8065 0.3848 0.0000
vt 0.8065 0.4746 0.0000
vt 0.4230 0.4746 0.0000
vt 0.4031 0.4746 0.0000
vt 0.0197 0.4746 0.0000
vt 0.0197 0.3848 0.0000
vt 0.4031 0.3848 0.0000
vt 0.4230 0.8296 0.0000
vt 0.8065 0.8296 0.0000
vt 0.8065 0.8355 0.0000
vt 0.4230 0.8355 0.0000
vt 0.8065 0.8032 0.0000
vt 0.8065 0.8091 0.0000
vt 0.4230 0.8091 0.0000
vt 0.4230 0.8032 0.0000
vt 0.7118 0.6933 0.0000
vt 0.4942 0.6933 0.0000
vt 0.4942 0.6035 0.0000
vt 0.7118 0.6035 0.0000
vt 0.7871 0.1206 0.0000
vt 0.7871 0.1108 0.0000
vt 0.8769 0.1108 0.0000
vt 0.8769 0.1206 0.0000
vt 0.4745 0.6933 0.0000
vt 0.2569 0.6933 0.0000
vt 0.2569 0.6035 0.0000
vt 0.4745 0.6035 0.0000
vt 0.8769 0.0200 0.0000
vt 0.8769 0.0298 0.0000
vt 0.7871 0.0298 0.0000
vt 0.7871 0.0200 0.0000
vt 0.7315 0.6441 0.0000
vt 0.7315 0.6342 0.0000
vt 0.9491 0.6342 0.0000
vt 0.9491 0.6441 0.0000
vt 0.7315 0.6645 0.0000
vt 0.9491 0.6645 0.0000
vt 0.9491 0.6743 0.0000
vt 0.7315 0.6743 0.0000
vt 0.7673 0.0196 0.0000
vt 0.7673 0.2372 0.0000
vt 0.4036 0.2372 0.0000
vt 0.4036 0.0196 0.0000
vt 0.3836 0.0196 0.0000
vt 0.3836 0.2372 0.0000
vt 0.0198 0.2372 0.0000
vt 0.0198 0.0196 0.0000
vt 0.9673 0.0855 0.0000
vt 0.9667 0.0849 0.0000
vt 0.9667 0.0806 0.0000
vt 0.9673 0.0806 0.0000
vt 0.9575 0.0855 0.0000
vt 0.9575 0.0849 0.0000
vt 0.0200 0.9067 0.0000
vt 0.3824 0.9067 0.0000
vt 0.3824 0.9116 0.0000
vt 0.0200 0.9116 0.0000
vt 0.4028 0.7133 0.0000
vt 0.7652 0.7133 0.0000
vt 0.7652 0.7232 0.0000
vt 0.4028 0.7232 0.0000
vt 0.4028 0.9768 0.0000
vt 0.7652 0.9768 0.0000
vt 0.7652 0.9773 0.0000
vt 0.4028 0.9773 0.0000
vt 0.2573 0.7434 0.0000
vt 0.6197 0.7434 0.0000
vt 0.6197 0.7527 0.0000
vt 0.2573 0.7527 0.0000
vt 0.0200 0.9319 0.0000
vt 0.3824 0.9319 0.0000
vt 0.3824 0.9362 0.0000
vt 0.0200 0.9362 0.0000
vt 0.0200 0.9768 0.0000
vt 0.3824 0.9768 0.0000
vt 0.3824 0.9773 0.0000
vt 0.0200 0.9773 0.0000
vt 0.9062 0.0811 0.0000
vt 0.9068 0.0806 0.0000
vt 0.9068 0.0855 0.0000
vt 0.9062 0.0855 0.0000
vt 0.8969 0.0811 0.0000
vt 0.8969 0.0806 0.0000
vt 0.7652 0.8559 0.0000
vt 0.7652 0.8609 0.0000
vt 0.4028 0.8609 0.0000
vt 0.4028 0.8559 0.0000
vt 0.7652 0.2570 0.0000
vt 0.7652 0.3650 0.0000
vt 0.4028 0.3650 0.0000
vt 0.4028 0.2570 0.0000
vt 0.3824 0.8813 0.0000
vt 0.3824 0.8862 0.0000
vt 0.0200 0.8862 0.0000
vt 0.0200 0.8813 0.0000
vt 0.7873 0.2241 0.0000
vt 0.7873 0.2192 0.0000
vt 0.8953 0.2192 0.0000
vt 0.8953 0.2241 0.0000
vt 0.7854 0.2573 0.0000
vt 0.8934 0.2573 0.0000
vt 0.8934 0.2622 0.0000
vt 0.7854 0.2622 0.0000
vt 0.9370 0.0806 0.0000
vt 0.9370 0.0855 0.0000
vt 0.9365 0.0855 0.0000
vt 0.9365 0.0811 0.0000
vt 0.9272 0.0806 0.0000
vt 0.9272 0.0811 0.0000
vt 0.4028 0.8862 0.0000
vt 0.4028 0.8813 0.0000
vt 0.7652 0.8813 0.0000
vt 0.7652 0.8862 0.0000
vt 0.0200 0.7232 0.0000
vt 0.0200 0.7133 0.0000
vt 0.3824 0.7133 0.0000
vt 0.3824 0.7232 0.0000
vt 0.0200 0.9568 0.0000
vt 0.0200 0.9562 0.0000
vt 0.3824 0.9562 0.0000
vt 0.3824 0.9568 0.0000
vt 0.0200 0.7829 0.0000
vt 0.0200 0.7737 0.0000
vt 0.3824 0.7737 0.0000
vt 0.3824 0.7829 0.0000
vt 0.4028 0.9362 0.0000
vt 0.4028 0.9319 0.0000
vt 0.7652 0.9319 0.0000
vt 0.7652 0.9362 0.0000
vt 0.4028 0.9568 0.0000
vt 0.4028 0.9562 0.0000
vt 0.7652 0.9562 0.0000
vt 0.7652 0.9568 0.0000
vt 0.9062 0.1151 0.0000
vt 0.9062 0.1108 0.0000
vt 0.9068 0.1108 0.0000
vt 0.9068 0.1157 0.0000
vt 0.8969 0.1151 0.0000
vt 0.8969 0.1157 0.0000
vt 0.7652 0.9116 0.0000
vt 0.4028 0.9116 0.0000
vt 0.4028 0.9067 0.0000
vt 0.7652 0.9067 0.0000
vt 0.3824 0.3650 0.0000
vt 0.0200 0.3650 0.0000
vt 0.0200 0.2570 0.0000
vt 0.3824 0.2570 0.0000
vt 0.3824 0.8609 0.0000
vt 0.0200 0.8609 0.0000
vt 0.0200 0.8559 0.0000
vt 0.3824 0.8559 0.0000
vt 0.8953 0.1987 0.0000
vt 0.7873 0.1987 0.0000
vt 0.7873 0.1938 0.0000
vt 0.8953 0.1938 0.0000
vt 0.8934 0.2827 0.0000
vt 0.8934 0.2876 0.0000
vt 0.7854 0.2876 0.0000
vt 0.7854 0.2827 0.0000
# 220 texture coords

g bezier_cabinet
usemtl 08___Default
s 1
f 1/1/1 2/2/1 3/3/1 
f 3/3/1 4/4/1 1/1/1 
s 4
f 5/5/2 1/6/2 4/7/2 
f 4/7/2 6/8/2 5/5/2 
s 2
f 7/9/3 5/10/3 6/11/3 
f 6/11/3 8/12/3 7/9/3 
s 4
f 2/13/4 7/14/4 8/15/4 
f 8/15/4 3/16/4 2/13/4 
s 1
f 9/17/5 10/18/5 11/19/5 
f 11/19/5 12/20/5 9/17/5 
s 4
f 13/21/6 9/22/6 12/23/6 
f 12/23/6 14/24/6 13/21/6 
f 10/25/7 15/26/7 16/27/7 
f 16/27/7 11/28/7 10/25/7 
s 16
f 14/29/8 12/30/8 11/31/8 
f 11/31/8 16/32/8 14/29/8 
f 10/33/3 9/34/3 13/35/3 
f 13/35/3 15/36/3 10/33/3 
s 1
f 17/37/9 18/38/9 19/39/9 
f 19/39/9 20/40/9 17/37/9 
s 4
f 21/41/6 17/42/6 20/43/6 
f 20/43/6 22/44/6 21/41/6 
f 18/45/4 23/46/4 24/47/4 
f 24/47/4 19/48/4 18/45/4 
s 16
f 22/49/8 20/50/8 19/51/8 
f 19/51/8 24/52/8 22/49/8 
f 18/53/10 17/54/10 21/55/10 
f 21/55/10 23/56/10 18/53/10 
s 1
f 25/57/9 26/58/9 27/59/9 
f 27/59/9 28/60/9 25/57/9 
s 4
f 29/61/6 25/62/6 28/63/6 
f 28/63/6 30/64/6 29/61/6 
f 26/65/4 31/66/4 32/67/4 
f 32/67/4 27/68/4 26/65/4 
s 16
f 30/69/8 28/70/8 27/71/8 
f 27/71/8 32/72/8 30/69/8 
f 26/73/10 25/74/10 29/75/10 
f 29/75/10 31/76/10 26/73/10 
s 1
f 33/77/5 34/78/5 35/79/5 
f 35/79/5 36/80/5 33/77/5 
s 4
f 37/81/6 33/82/6 36/83/6 
f 36/83/6 38/84/6 37/81/6 
s 2
f 39/85/11 37/86/11 38/87/11 
f 38/87/11 40/88/11 39/85/11 
s 4
f 34/89/7 39/90/7 40/91/7 
f 40/91/7 35/92/7 34/89/7 
s 16
f 38/93/8 36/94/8 35/95/8 
f 35/95/8 40/96/8 38/93/8 
f 34/97/3 33/98/3 37/99/3 
f 37/99/3 39/100/3 34/97/3 
s 1
f 41/101/8 42/102/8 43/103/8 
f 43/103/8 44/104/8 41/101/8 
s 2
f 45/105/10 46/106/10 47/107/10 
f 47/107/10 48/108/10 45/105/10 
s 1
f 49/109/9 50/110/9 51/111/9 
f 51/111/9 52/112/9 49/109/9 
f 53/113/9 54/114/9 50/110/9 
f 50/110/9 49/109/9 53/113/9 
s 2
f 55/115/3 49/116/3 52/117/3 
f 52/117/3 56/118/3 55/115/3 
s 4
f 57/119/7 53/120/7 49/121/7 
f 49/121/7 55/122/7 57/119/7 
s 2
f 58/123/8 54/124/8 53/125/8 
f 53/125/8 57/126/8 58/123/8 
s 4
f 59/127/6 50/128/6 54/129/6 
f 54/129/6 58/130/6 59/127/6 
s 2
f 60/131/8 51/132/8 50/133/8 
f 50/133/8 59/134/8 60/131/8 
s 4
f 56/135/6 52/136/6 51/137/6 
f 51/137/6 60/138/6 56/135/6 
s 1
f 59/139/11 55/140/11 56/141/11 
f 56/141/11 60/142/11 59/139/11 
f 58/143/11 57/144/11 55/140/11 
f 55/140/11 59/139/11 58/143/11 
s 4
f 61/145/6 62/146/6 63/147/6 
f 63/147/6 64/148/6 61/145/6 
s 2
f 65/149/3 61/150/3 64/151/3 
f 64/151/3 66/152/3 65/149/3 
s 4
f 67/153/7 65/154/7 66/155/7 
f 66/155/7 68/156/7 67/153/7 
s 16
f 64/157/11 63/158/11 68/159/11 
f 68/159/11 66/160/11 64/157/11 
f 67/161/9 62/162/9 61/163/9 
f 61/163/9 65/164/9 67/161/9 
s 1
f 69/165/9 70/166/9 71/167/9 
f 71/167/9 72/168/9 69/165/9 
f 73/169/9 69/165/9 72/168/9 
f 72/168/9 74/170/9 73/169/9 
s 2
f 75/171/3 76/172/3 70/173/3 
f 70/173/3 69/174/3 75/171/3 
s 4
f 77/175/2 75/176/2 69/177/2 
f 69/177/2 73/178/2 77/175/2 
s 2
f 78/179/1 77/180/1 73/181/1 
f 73/181/1 74/182/1 78/179/1 
s 4
f 79/183/7 78/184/7 74/185/7 
f 74/185/7 72/186/7 79/183/7 
s 2
f 80/187/1 79/188/1 72/189/1 
f 72/189/1 71/190/1 80/187/1 
s 4
f 76/191/7 80/192/7 71/193/7 
f 71/193/7 70/194/7 76/191/7 
s 1
f 79/195/11 80/196/11 76/197/11 
f 76/197/11 75/198/11 79/195/11 
f 78/199/11 79/195/11 75/198/11 
f 75/198/11 77/200/11 78/199/11 
s 4
f 81/201/7 82/202/7 83/203/7 
f 83/203/7 84/204/7 81/201/7 
s 2
f 85/205/3 86/206/3 82/207/3 
f 82/207/3 81/208/3 85/205/3 
s 4
f 87/209/2 88/210/2 86/211/2 
f 86/211/2 85/212/2 87/209/2 
s 16
f 82/213/11 86/214/11 88/215/11 
f 88/215/11 83/216/11 82/213/11 
f 87/217/9 85/218/9 81/219/9 
f 81/219/9 84/220/9 87/217/9 
# 114 faces

