# 3ds Max Wavefront OBJ Exporter v0.97b - (c)2007 guruware
# File Created: 15.06.2016 03:27:19

#
# object nightstand
#

v  1175.0194 64.7547 472.1765
v  1174.9440 62.4624 472.1700
v  1135.4421 62.5092 472.1690
v  1135.3979 64.7254 472.1690
v  1175.0199 64.7872 530.7219
v  1135.3805 64.7549 530.7219
v  1135.4126 62.4920 530.7219
v  1175.0519 62.5243 530.7219
v  1175.0297 64.7873 530.7119
v  1175.0621 62.5243 530.7119
v  1174.9537 62.4624 472.1800
v  1175.0297 64.7547 472.1865
v  1135.3804 64.7649 530.7119
v  1175.0197 64.7972 530.7119
v  1175.0197 64.7647 472.1865
v  1135.3977 64.7354 472.1790
v  1177.6401 85.8741 530.7119
v  1133.0764 85.8418 530.7443
v  1133.1058 85.8590 472.2155
v  1177.5317 85.8121 472.1799
v  1177.6177 88.1470 530.7119
v  1177.6503 85.8841 530.7119
v  1177.5419 85.8221 472.1799
v  1177.6177 88.1145 472.1864
v  1133.0439 88.1247 530.7443
v  1177.6078 88.1570 530.7119
v  1177.6078 88.1245 472.1865
v  1133.0613 88.0952 472.2155
v  1133.0662 85.8518 530.7443
v  1133.0342 88.1147 530.7443
v  1133.0514 88.0852 472.2156
v  1133.0957 85.8690 472.2156
v  1181.3286 91.1527 530.7319
v  1133.0439 91.1528 530.7642
v  1133.0763 91.1528 536.4786
v  1181.3608 91.1527 536.4463
v  1181.3608 91.1427 536.4562
v  1133.0763 91.1428 536.4886
v  1133.1058 31.5275 536.4713
v  1181.2524 31.5327 536.5182
v  1181.3385 91.1427 530.7319
v  1181.3710 91.1427 536.4463
v  1181.2625 31.5328 536.5082
v  1181.3385 31.5393 530.7644
v  1133.0439 91.1428 530.7542
v  1181.3285 91.1427 530.7219
v  1181.3285 31.5393 530.7544
v  1133.0613 31.5275 530.7838
v  1133.0663 91.1428 536.4786
v  1133.0341 91.1428 530.7642
v  1133.0513 31.5275 530.7938
v  1133.0957 31.5275 536.4613
v  1181.3286 91.0879 466.4489
v  1133.0441 91.0880 466.4813
v  1133.0763 91.0879 472.1956
v  1181.3608 91.0879 472.1633
v  1181.3608 91.0779 472.1732
v  1133.0763 91.0779 472.2056
v  1133.1058 31.5275 472.1883
v  1181.2524 31.5327 472.2352
v  1181.3385 91.0779 466.4489
v  1181.3710 91.0779 472.1633
v  1181.2625 31.5327 472.2252
v  1181.3385 31.5393 466.4814
v  1133.0439 91.0780 466.4713
v  1181.3285 91.0779 466.4389
v  1181.3285 31.5393 466.4714
v  1133.0613 31.5275 466.5008
v  1133.0663 91.0779 472.1956
v  1133.0341 91.0780 466.4813
v  1133.0513 31.5275 466.5108
v  1133.0957 31.5275 472.1783
v  1177.2850 40.1014 472.5348
v  1174.9928 40.1768 472.5283
v  1175.0397 63.3401 472.5230
v  1177.2559 64.7888 472.5230
v  1177.3176 40.1009 530.3689
v  1177.2853 64.8064 530.3688
v  1175.0223 63.3696 530.3688
v  1175.0547 40.0688 530.3689
v  1177.2953 64.8146 530.3588
v  1177.3276 40.1011 530.3589
v  1177.2950 40.1011 472.5448
v  1177.2657 64.7973 472.5330
v  1175.0208 63.3805 530.3588
v  1177.2869 64.8192 530.3588
v  1177.2573 64.8019 472.5330
v  1175.0381 63.3509 472.5330
v  1133.0956 40.0924 530.7738
v  1133.0632 85.8427 530.7442
v  1133.0958 85.8427 472.1908
v  1133.1251 40.1097 472.1790
v  1174.9536 62.4524 472.1700
v  1135.3877 64.7354 472.1690
v  1175.0621 62.5143 530.7219
v  1135.3704 64.7649 530.7219
v  1177.5417 85.8121 472.1699
v  1177.6178 88.1245 472.1765
v  1133.0664 85.8418 530.7543
v  1133.0513 88.0952 472.2056
v  1133.0339 88.1247 530.7543
v  1177.6501 85.8741 530.7219
v  1177.6178 88.1571 530.7219
v  1133.0958 85.8590 472.2056
v  1181.2625 31.5227 536.5182
v  1181.3385 31.5293 530.7544
v  1133.0513 31.5175 530.7838
v  1133.0958 31.5175 536.4713
v  1181.2625 31.5227 472.2352
v  1181.3385 31.5293 466.4714
v  1133.0513 31.5175 466.5008
v  1133.0958 31.5175 472.1884
v  1175.0123 63.3751 530.3688
v  1177.3276 40.0911 530.3689
v  1175.0297 63.3455 472.5230
v  1177.2950 40.0911 472.5348
v  1135.4323 62.4993 472.1690
v  1135.4027 62.4820 530.7219
v  1174.9827 40.1671 472.5282
v  1175.0447 40.0587 530.3689
v  1133.0958 85.8527 472.1808
v  1133.1251 40.0997 472.1690
v  1133.0956 40.0824 530.7838
v  1133.0632 85.8527 530.7542
# 124 vertices

vn 0.0000 0.0029 -1.0000
vn 0.0002 -0.0000 -1.0000
vn 0.0000 0.0000 1.0000
vn 0.9999 0.0144 -0.0019
vn 0.9995 -0.0331 0.0000
vn -0.0008 1.0000 -0.0006
vn -0.0007 1.0000 -0.0005
vn 0.0007 -1.0000 -0.0003
vn -0.0011 -1.0000 0.0011
vn -0.0007 1.0000 -0.0006
vn -0.9999 -0.0142 -0.0003
vn -0.9998 -0.0200 -0.0005
vn 0.0000 1.0000 -0.0000
vn 0.0007 -0.0003 1.0000
vn -0.0010 0.0010 1.0000
vn 1.0000 -0.0018 -0.0057
vn 0.9999 0.0000 0.0132
vn -0.0007 -0.0005 -1.0000
vn -0.0006 -0.0005 -1.0000
vn -1.0000 -0.0003 0.0056
vn -1.0000 -0.0005 0.0078
vn 0.0000 1.0000 0.0000
vn 0.0028 -0.0002 -1.0000
vn 0.0003 -0.0005 -1.0000
vn -0.0000 0.0000 1.0000
vn 1.0000 0.0013 -0.0006
vn 1.0000 0.0012 -0.0005
vn -0.5360 0.8442 0.0000
vn -0.5472 0.8370 -0.0006
vn -1.0000 -0.0007 -0.0006
vn -1.0000 -0.0006 -0.0005
vn 0.5882 0.5693 -0.5744
vn 0.5729 0.5702 -0.5888
vn 0.5729 0.5856 -0.5734
vn 0.5838 0.5784 0.5698
vn 0.5701 0.5788 0.5831
vn 0.5743 0.5831 0.5746
vn 0.5758 -0.5816 0.5746
vn 0.5796 0.5731 0.5794
vn -0.5745 -0.5835 -0.5740
vn -0.5807 0.5711 0.5803
vn -0.5811 0.5703 -0.5806
vn 0.5745 -0.5815 -0.5760
vn 0.5787 0.5734 -0.5798
vn -0.5738 -0.5842 0.5740
vn 0.5769 0.5762 0.5789
vn 0.5779 0.5781 -0.5760
vn -0.5760 0.5765 0.5795
vn -0.5791 0.5782 -0.5747
vn 0.5746 0.5798 0.5776
vn 0.5802 0.5741 -0.5777
vn -0.5793 0.5778 -0.5750
vn -0.5761 0.5759 0.5800
vn 0.5769 0.5762 0.5790
vn 0.5780 0.5781 -0.5760
vn -0.5760 0.5766 0.5794
vn 0.5746 0.5797 0.5777
vn -0.5762 0.5758 0.5800
vn 0.3613 0.6585 0.6602
vn 0.5717 0.5806 0.5797
vn 0.3592 0.6602 -0.6596
vn 0.5903 0.5708 -0.5707
vn 0.3034 0.5564 -0.7736
vn 0.3068 0.5635 0.7670
vn 0.0015 0.0000 -1.0000
vn -0.0013 -0.0000 -1.0000
vn -0.0004 0.7075 -0.7068
vn -0.0004 0.7074 -0.7068
vn 0.6977 -0.0210 -0.7161
vn 0.7152 -0.0215 -0.6986
vn 0.0000 0.0014 -1.0000
vn 0.0000 0.0015 -1.0000
vn 0.0000 -0.0000 1.0000
vn 0.6990 0.0101 0.7151
vn 0.7158 0.0102 0.6983
vn -0.0006 0.7073 0.7069
vn 0.9999 -0.0104 -0.0018
vn 1.0000 -0.0086 -0.0018
vn 0.7098 0.7044 -0.0004
vn 0.7105 0.7037 -0.0004
vn -0.0008 1.0000 -0.0005
vn -0.9998 -0.0199 -0.0033
vn -0.9998 -0.0200 0.0026
vn 0.9992 -0.0329 0.0224
vn 0.9992 -0.0330 -0.0245
vn -0.0011 -1.0000 0.0012
vn -0.0011 -1.0000 -0.0005
vn 0.0007 -1.0000 -0.0005
vn 0.0007 -1.0000 0.0013
vn 0.9996 0.0142 -0.0247
vn 0.9996 0.0144 0.0230
vn -0.0007 1.0000 -0.0004
vn -0.9999 -0.0142 0.0024
vn -0.9999 -0.0142 -0.0032
vn 0.7042 -0.7100 -0.0006
vn 0.7030 -0.7112 -0.0005
vn -0.7013 -0.7128 -0.0006
vn -0.7010 -0.7132 -0.0006
vn 0.7106 0.7036 -0.0004
vn -0.7133 0.7009 -0.0006
vn -0.7134 0.7008 -0.0006
vn -1.0000 -0.0015 0.0078
vn -1.0000 0.0008 0.0078
vn -0.0006 -0.0004 -1.0000
vn 0.9999 0.0084 0.0132
vn 0.9999 -0.0104 0.0132
vn -0.0010 0.0014 1.0000
vn -0.0010 -0.0006 1.0000
vn 0.0005 0.7074 0.7068
vn 0.0005 0.7070 0.7072
vn 0.7041 0.7101 -0.0040
vn 0.7108 0.7034 -0.0040
vn -0.0005 0.7069 -0.7073
vn -0.7076 0.7066 0.0040
vn -0.7069 0.7073 0.0040
vn 0.7063 -0.0005 0.7079
vn 0.7053 -0.0005 0.7089
vn -0.7050 -0.0006 0.7093
vn -0.7046 -0.0006 0.7096
vn 0.7078 -0.0004 -0.7064
vn 0.7086 -0.0004 -0.7056
vn -0.7097 -0.0006 -0.7045
vn -0.0006 -0.0006 -1.0000
vn -0.0010 0.0012 1.0000
vn -0.0010 -0.0004 1.0000
vn 0.0005 0.7075 0.7067
vn 0.0005 0.7069 0.7073
vn 0.7062 -0.0005 0.7080
vn 0.7052 -0.0005 0.7091
vn -0.7050 -0.0006 0.7092
vn 0.7079 -0.0004 -0.7063
vn -0.3879 0.5933 -0.7054
vn -0.3857 0.5901 -0.7092
vn 0.7076 0.0005 -0.7066
vn 0.7075 0.0005 -0.7068
vn 0.0029 0.0009 -1.0000
vn 0.0028 -0.0017 -1.0000
vn 0.0014 -0.0002 -1.0000
vn 0.0016 -0.0002 -1.0000
vn 0.7072 0.0009 0.7070
vn 0.7073 0.0009 0.7069
vn -0.3803 0.5990 0.7047
vn -0.3778 0.5951 0.7093
vn -0.5413 0.8408 -0.0006
vn -0.5418 0.8405 -0.0006
vn 1.0000 0.0012 -0.0006
vn 0.4784 0.8782 -0.0005
vn 0.4781 0.8783 -0.0005
vn -1.0000 -0.0007 -0.0005
vn -1.0000 -0.0007 -0.0004
vn -1.0000 -0.0006 -0.0006
# 151 vertex normals

vt 0.8768 0.8318 0.0000
vt 0.8764 0.8435 0.0000
vt 0.6614 0.8433 0.0000
vt 0.6612 0.8319 0.0000
vt 0.3346 0.8239 0.0000
vt 0.5504 0.8241 0.0000
vt 0.5502 0.8357 0.0000
vt 0.3345 0.8355 0.0000
vt 0.9708 0.7732 0.0000
vt 0.9708 0.7852 0.0000
vt 0.6612 0.7855 0.0000
vt 0.6612 0.7734 0.0000
vt 0.9757 0.2746 0.0000
vt 0.9757 0.4903 0.0000
vt 0.6750 0.4903 0.0000
vt 0.6749 0.2746 0.0000
vt 0.9761 0.0021 0.0000
vt 0.9761 0.2377 0.0000
vt 0.6666 0.2376 0.0000
vt 0.6666 0.0026 0.0000
vt 0.9708 0.7437 0.0000
vt 0.9708 0.7557 0.0000
vt 0.6612 0.7560 0.0000
vt 0.6612 0.7439 0.0000
vt 0.6440 0.5235 0.0000
vt 0.6440 0.7592 0.0000
vt 0.3345 0.7592 0.0000
vt 0.3345 0.5236 0.0000
vt 0.9707 0.8026 0.0000
vt 0.9707 0.8146 0.0000
vt 0.6612 0.8144 0.0000
vt 0.6612 0.8027 0.0000
vt 0.5898 0.8068 0.0000
vt 0.3345 0.8066 0.0000
vt 0.3346 0.7764 0.0000
vt 0.5900 0.7765 0.0000
vt 0.0021 0.5299 0.0000
vt 0.0021 0.2746 0.0000
vt 0.3173 0.2747 0.0000
vt 0.3173 0.5293 0.0000
vt 0.6612 0.5541 0.0000
vt 0.6612 0.5239 0.0000
vt 0.9764 0.5235 0.0000
vt 0.9764 0.5539 0.0000
vt 0.0021 0.2574 0.0000
vt 0.0021 0.0021 0.0000
vt 0.3173 0.0021 0.0000
vt 0.3173 0.2573 0.0000
vt 0.9764 0.5712 0.0000
vt 0.9764 0.6015 0.0000
vt 0.6612 0.6013 0.0000
vt 0.6612 0.5713 0.0000
vt 0.9165 0.6964 0.0000
vt 0.6612 0.6962 0.0000
vt 0.6613 0.6660 0.0000
vt 0.9167 0.6662 0.0000
vt 0.0021 0.8024 0.0000
vt 0.0021 0.5471 0.0000
vt 0.3170 0.5472 0.0000
vt 0.3170 0.8018 0.0000
vt 0.0021 0.9979 0.0000
vt 0.0021 0.9677 0.0000
vt 0.3170 0.9674 0.0000
vt 0.3169 0.9978 0.0000
vt 0.3345 0.2574 0.0000
vt 0.3345 0.0021 0.0000
vt 0.6493 0.0021 0.0000
vt 0.6494 0.2573 0.0000
vt 0.9761 0.6186 0.0000
vt 0.9761 0.6488 0.0000
vt 0.6612 0.6487 0.0000
vt 0.6612 0.6187 0.0000
vt 0.7918 0.8607 0.0000
vt 0.7914 0.8728 0.0000
vt 0.6689 0.8726 0.0000
vt 0.6612 0.8608 0.0000
vt 0.4652 0.8650 0.0000
vt 0.3345 0.8648 0.0000
vt 0.3421 0.8529 0.0000
vt 0.4653 0.8530 0.0000
vt 0.3079 0.8196 0.0000
vt 0.3079 0.9502 0.0000
vt 0.0021 0.9502 0.0000
vt 0.0021 0.8196 0.0000
vt 0.9947 0.7135 0.0000
vt 0.9947 0.7266 0.0000
vt 0.6612 0.7264 0.0000
vt 0.6612 0.7136 0.0000
vt 0.6578 0.2746 0.0000
vt 0.6578 0.5064 0.0000
vt 0.3345 0.5064 0.0000
vt 0.3345 0.2746 0.0000
vt 0.6611 0.7855 0.0000
vt 0.8768 0.8317 0.0000
vt 0.6612 0.8318 0.0000
vt 0.6611 0.8319 0.0000
vt 0.9736 0.4894 0.0000
vt 0.9736 0.4893 0.0000
vt 0.3344 0.8355 0.0000
vt 0.3344 0.8356 0.0000
vt 0.9758 0.2746 0.0000
vt 0.9758 0.2745 0.0000
vt 0.6665 0.0026 0.0000
vt 0.6612 0.7438 0.0000
vt 0.9761 0.2378 0.0000
vt 0.9762 0.2378 0.0000
vt 0.3344 0.5236 0.0000
vt 0.9707 0.8147 0.0000
vt 0.9708 0.8147 0.0000
vt 0.9707 0.7558 0.0000
vt 0.9708 0.7558 0.0000
vt 0.6440 0.7593 0.0000
vt 0.6441 0.7593 0.0000
vt 0.6611 0.8027 0.0000
vt 0.3173 0.5294 0.0000
vt 0.9764 0.5540 0.0000
vt 0.3345 0.7763 0.0000
vt 0.3173 0.2574 0.0000
vt 0.3174 0.2574 0.0000
vt 0.6612 0.5240 0.0000
vt 0.6611 0.5238 0.0000
vt 0.0019 0.0025 0.0000
vt 0.0019 0.0024 0.0000
vt 0.3344 0.8066 0.0000
vt 0.3345 0.8065 0.0000
vt 0.6611 0.5713 0.0000
vt 0.3169 0.8019 0.0000
vt 0.3170 0.8019 0.0000
vt 0.3170 0.9978 0.0000
vt 0.6613 0.6661 0.0000
vt 0.6612 0.6659 0.0000
vt 0.3343 0.0025 0.0000
vt 0.3343 0.0024 0.0000
vt 0.6494 0.2574 0.0000
vt 0.6495 0.2574 0.0000
vt 0.0020 0.9678 0.0000
vt 0.0019 0.9677 0.0000
vt 0.6611 0.6963 0.0000
vt 0.6612 0.6961 0.0000
vt 0.6612 0.6186 0.0000
vt 0.6611 0.6187 0.0000
vt 0.9948 0.7135 0.0000
vt 0.4652 0.8651 0.0000
vt 0.6688 0.8726 0.0000
vt 0.0020 0.9502 0.0000
vt 0.0021 0.9503 0.0000
vt 0.6611 0.7265 0.0000
vt 0.6612 0.7263 0.0000
vt 0.3344 0.8649 0.0000
vt 0.6613 0.8433 0.0000
vt 0.6748 0.2746 0.0000
vt 0.6749 0.4903 0.0000
vt 0.6613 0.7734 0.0000
vt 0.8765 0.8436 0.0000
vt 0.5502 0.8358 0.0000
vt 0.9707 0.7852 0.0000
vt 0.9707 0.7732 0.0000
vt 0.9758 0.4903 0.0000
vt 0.5504 0.8240 0.0000
vt 0.6611 0.8145 0.0000
vt 0.3345 0.7593 0.0000
vt 0.6611 0.7561 0.0000
vt 0.6665 0.2376 0.0000
vt 0.9762 0.0020 0.0000
vt 0.6441 0.5235 0.0000
vt 0.9708 0.8026 0.0000
vt 0.6612 0.7561 0.0000
vt 0.9707 0.8025 0.0000
vt 0.6612 0.8026 0.0000
vt 0.6612 0.8146 0.0000
vt 0.6611 0.6014 0.0000
vt 0.3173 0.0020 0.0000
vt 0.9765 0.5235 0.0000
vt 0.3174 0.2747 0.0000
vt 0.0020 0.2746 0.0000
vt 0.0020 0.5299 0.0000
vt 0.0020 0.0021 0.0000
vt 0.0020 0.2574 0.0000
vt 0.6612 0.5238 0.0000
vt 0.9764 0.5711 0.0000
vt 0.6612 0.5712 0.0000
vt 0.0021 0.0020 0.0000
vt 0.6612 0.6014 0.0000
vt 0.9764 0.6016 0.0000
vt 0.6611 0.6487 0.0000
vt 0.6494 0.0020 0.0000
vt 0.3170 0.9673 0.0000
vt 0.0020 0.5471 0.0000
vt 0.0020 0.8024 0.0000
vt 0.3344 0.0021 0.0000
vt 0.3344 0.2574 0.0000
vt 0.9760 0.6488 0.0000
vt 0.9760 0.6186 0.0000
vt 0.0021 0.9676 0.0000
vt 0.9761 0.6185 0.0000
vt 0.6493 0.0020 0.0000
vt 0.3345 0.0020 0.0000
vt 0.6612 0.6488 0.0000
vt 0.9761 0.6489 0.0000
vt 0.6613 0.7264 0.0000
vt 0.0020 0.8197 0.0000
vt 0.7918 0.8606 0.0000
vt 0.7914 0.8729 0.0000
vt 0.3421 0.8528 0.0000
vt 0.4654 0.8530 0.0000
vt 0.9946 0.7265 0.0000
vt 0.6611 0.7136 0.0000
vt 0.3079 0.9503 0.0000
vt 0.6612 0.7265 0.0000
vt 0.9947 0.7267 0.0000
vt 0.3345 0.5065 0.0000
vt 0.3344 0.2746 0.0000
vt 0.6578 0.2745 0.0000
vt 0.6578 0.5065 0.0000
# 214 texture coords

g nightstand
s off
f 1/1/1 2/2/1 3/3/1 
f 3/3/2 4/4/2 1/1/2 
f 5/5/3 6/6/3 7/7/3 
f 7/7/3 8/8/3 5/5/3 
f 9/9/4 10/10/4 11/11/4 
f 11/11/5 12/12/5 9/9/5 
f 13/13/6 14/14/6 15/15/6 
f 15/15/7 16/16/7 13/13/7 
f 17/17/8 18/18/8 19/19/8 
f 19/19/9 20/20/9 17/17/9 
f 21/21/4 22/22/4 23/23/4 
f 23/23/5 24/24/5 21/21/5 
f 25/25/10 26/26/10 27/27/10 
f 27/27/7 28/28/7 25/25/7 
f 29/29/11 30/30/11 31/31/11 
f 31/31/12 32/32/12 29/29/12 
f 33/33/13 34/34/13 35/35/13 
f 35/35/13 36/36/13 33/33/13 
f 37/37/14 38/38/14 39/39/14 
f 39/39/15 40/40/15 37/37/15 
f 41/41/16 42/42/16 43/43/16 
f 43/43/17 44/44/17 41/41/17 
f 45/45/18 46/46/18 47/47/18 
f 47/47/19 48/48/19 45/45/19 
f 49/49/20 50/50/20 51/51/20 
f 51/51/21 52/52/21 49/49/21 
f 53/53/22 54/54/22 55/55/22 
f 55/55/13 56/56/13 53/53/13 
f 57/57/14 58/58/14 59/59/14 
f 59/59/15 60/60/15 57/57/15 
f 61/61/16 62/62/16 63/63/16 
f 63/63/17 64/64/17 61/61/17 
f 65/65/18 66/66/18 67/67/18 
f 67/67/19 68/68/19 65/65/19 
f 69/69/20 70/70/20 71/71/20 
f 71/71/21 72/72/21 69/69/21 
f 73/73/23 74/74/23 75/75/23 
f 75/75/24 76/76/24 73/73/24 
f 77/77/25 78/78/25 79/79/25 
f 79/79/3 80/80/3 77/77/3 
f 81/81/26 82/82/26 83/83/26 
f 83/83/27 84/84/27 81/81/27 
f 85/85/28 86/86/28 87/87/28 
f 87/87/29 88/88/29 85/85/29 
f 89/89/30 90/90/30 91/91/30 
f 91/91/31 92/92/31 89/89/31 
f 2/93/32 11/11/32 93/93/32 
f 1/1/33 15/94/33 12/94/33 
f 16/95/34 4/4/34 94/96/34 
f 14/14/35 5/97/35 9/98/35 
f 10/99/36 8/8/36 95/100/36 
f 6/101/37 13/13/37 96/102/37 
f 23/20/38 20/20/38 97/103/38 
f 27/104/39 24/24/39 98/24/39 
f 29/105/40 18/18/40 99/106/40 
f 31/28/41 28/28/41 100/107/41 
f 25/108/42 30/30/42 101/109/42 
f 17/110/43 22/22/43 102/111/43 
f 21/112/44 26/26/44 103/113/44 
f 19/32/45 32/32/45 104/114/45 
f 43/115/46 40/40/46 105/115/46 
f 47/116/47 44/44/47 106/116/47 
f 35/35/48 49/35/48 38/117/48 
f 51/118/49 48/48/49 107/119/49 
f 42/42/50 36/120/50 37/121/50 
f 46/46/51 33/122/51 41/123/51 
f 34/34/52 45/124/52 50/125/52 
f 39/52/53 52/52/53 108/126/53 
f 63/127/54 60/60/54 109/128/54 
f 67/64/55 64/64/55 110/129/55 
f 55/55/56 69/130/56 58/131/56 
f 66/66/51 53/132/51 61/133/51 
f 71/134/49 68/68/49 111/135/49 
f 62/62/57 56/136/57 57/137/57 
f 54/54/52 65/138/52 70/139/52 
f 59/140/58 72/72/58 112/141/58 
f 79/142/59 85/85/59 113/142/59 
f 82/143/60 77/77/60 114/77/60 
f 88/144/61 75/75/61 115/144/61 
f 73/145/62 83/83/62 116/146/62 
f 87/87/63 84/147/63 76/148/63 
f 78/78/64 81/149/64 86/78/64 
f 3/3/65 117/150/65 94/96/65 
f 94/96/66 4/4/66 3/3/66 
f 4/151/67 16/16/67 15/15/67 
f 15/15/68 1/152/68 4/151/68 
f 1/153/69 12/12/69 11/11/69 
f 11/11/70 2/11/70 1/153/70 
f 2/2/71 93/154/71 117/150/71 
f 117/150/72 3/3/72 2/2/72 
f 7/7/73 118/155/73 95/100/73 
f 95/100/3 8/8/3 7/7/3 
f 8/156/74 10/10/74 9/9/74 
f 9/9/75 5/157/75 8/156/75 
f 5/158/76 14/14/76 13/13/76 
f 13/13/76 6/101/76 5/158/76 
f 6/6/3 96/159/3 118/155/3 
f 118/155/3 7/7/3 6/6/3 
f 10/10/77 95/10/77 93/93/77 
f 93/93/78 11/11/78 10/10/78 
f 12/15/79 15/15/79 14/14/79 
f 14/14/80 9/14/80 12/15/80 
f 16/16/81 94/16/81 96/102/81 
f 96/102/81 13/13/81 16/16/81 
f 31/31/82 100/160/82 104/114/82 
f 104/114/83 32/32/83 31/31/83 
f 27/27/7 98/161/7 100/107/7 
f 100/107/7 28/28/7 27/27/7 
f 23/23/84 97/162/84 98/24/84 
f 98/24/85 24/24/85 23/23/85 
f 19/19/86 104/163/86 97/103/86 
f 97/103/87 20/20/87 19/19/87 
f 17/17/88 102/164/88 99/106/88 
f 99/106/89 18/18/89 17/17/89 
f 21/21/90 103/21/90 102/111/90 
f 102/111/91 22/22/91 21/21/91 
f 25/25/7 101/165/7 103/113/7 
f 103/113/92 26/26/92 25/25/92 
f 29/29/93 99/166/93 101/109/93 
f 101/109/94 30/30/94 29/29/94 
f 20/167/95 23/23/95 22/22/95 
f 22/22/96 17/111/96 20/167/96 
f 18/168/97 29/29/97 32/32/97 
f 32/32/98 19/169/98 18/168/98 
f 24/161/79 27/27/79 26/26/79 
f 26/26/99 21/112/99 24/161/99 
f 28/170/100 31/31/100 30/30/100 
f 30/30/101 25/108/101 28/170/101 
f 51/51/102 107/171/102 108/126/102 
f 108/126/103 52/52/103 51/51/103 
f 47/47/104 106/172/104 107/119/104 
f 107/119/19 48/48/19 47/47/19 
f 43/43/105 105/173/105 106/116/105 
f 106/116/106 44/44/106 43/43/106 
f 39/39/107 108/174/107 105/115/107 
f 105/115/108 40/40/108 39/39/108 
f 35/175/109 38/38/109 37/37/109 
f 37/37/110 36/176/110 35/175/110 
f 36/42/111 42/42/111 41/41/111 
f 41/41/112 33/41/112 36/42/112 
f 33/177/113 46/46/113 45/45/113 
f 45/45/113 34/178/113 33/177/113 
f 34/50/114 50/50/114 49/49/114 
f 49/49/115 35/49/115 34/50/115 
f 40/43/116 43/43/116 42/42/116 
f 42/42/117 37/179/117 40/43/117 
f 38/180/118 49/49/118 52/52/118 
f 52/52/119 39/181/119 38/180/119 
f 44/172/120 47/47/120 46/46/120 
f 46/46/121 41/182/121 44/172/121 
f 48/183/122 51/51/122 50/50/122 
f 50/50/122 45/184/122 48/183/122 
f 71/71/102 111/185/102 112/141/102 
f 112/141/103 72/72/103 71/71/103 
f 67/67/123 110/186/123 111/135/123 
f 111/135/19 68/68/19 67/67/19 
f 63/63/105 109/187/105 110/129/105 
f 110/129/106 64/64/106 63/63/106 
f 59/59/124 112/59/124 109/128/124 
f 109/128/125 60/60/125 59/59/125 
f 55/188/126 58/58/126 57/57/126 
f 57/57/127 56/189/127 55/188/127 
f 56/62/111 62/62/111 61/61/111 
f 61/61/112 53/61/112 56/62/112 
f 53/190/113 66/66/113 65/65/113 
f 65/65/113 54/191/113 53/190/113 
f 54/192/114 70/70/114 69/69/114 
f 69/69/115 55/193/115 54/192/115 
f 60/187/128 63/63/128 62/62/128 
f 62/62/129 57/194/129 60/187/129 
f 58/195/130 69/69/130 72/72/130 
f 72/72/119 59/140/119 58/195/119 
f 64/196/131 67/67/131 66/66/131 
f 66/66/121 61/197/121 64/196/121 
f 68/198/122 71/71/122 70/70/122 
f 70/70/122 65/199/122 68/198/122 
f 75/88/132 88/88/132 87/87/132 
f 87/87/133 76/200/133 75/88/133 
f 76/201/134 84/84/134 83/83/134 
f 83/83/135 73/83/135 76/201/135 
f 73/73/136 116/202/136 119/203/136 
f 119/203/137 74/74/137 73/73/137 
f 74/74/138 119/203/138 115/144/138 
f 115/144/139 75/75/139 74/74/139 
f 79/79/3 113/204/3 120/205/3 
f 120/205/25 80/80/25 79/79/25 
f 80/80/73 120/205/73 114/77/73 
f 114/77/3 77/77/3 80/80/3 
f 77/82/140 82/82/140 81/81/140 
f 81/81/141 78/81/141 77/82/141 
f 78/206/142 86/86/142 85/85/142 
f 85/85/143 79/85/143 78/206/143 
f 88/88/144 115/207/144 113/142/144 
f 113/142/145 85/85/145 88/88/145 
f 82/82/146 114/208/146 116/146/146 
f 116/146/26 83/83/26 82/82/26 
f 84/209/147 87/87/147 86/86/147 
f 86/86/148 81/210/148 84/209/148 
f 91/91/31 121/211/31 122/212/31 
f 122/212/31 92/92/31 91/91/31 
f 89/89/149 123/213/149 124/214/149 
f 124/214/150 90/90/150 89/89/150 
f 90/90/151 124/214/151 121/211/151 
f 121/211/30 91/91/30 90/90/30 
f 92/92/31 122/212/31 123/213/31 
f 123/213/149 89/89/149 92/92/149 
# 206 faces

