# 3ds Max Wavefront OBJ Exporter v0.97b - (c)2007 guruware
# File Created: 17.10.2017 17:18:05

mtllib showcase_closet_glass.mtl

#
# object showcase_closet_glass
#

v  16.7987 41.9878 -36.2995
v  16.7987 190.2159 -36.2995
v  17.3489 190.2159 -36.2995
v  17.3489 41.9878 -36.2995
v  16.7987 41.9878 -0.1135
v  17.3488 41.9878 -0.1135
v  17.3489 190.2159 -0.1135
v  16.7987 190.2159 -0.1135
v  -18.2569 41.7075 37.1915
v  -18.2569 190.5272 37.1915
v  -18.2569 190.5272 36.6413
v  -18.2569 41.7075 36.6413
v  17.4166 41.7075 37.1915
v  17.4166 41.7075 36.6413
v  17.4167 190.5272 36.6413
v  17.4167 190.5272 37.1915
v  16.7987 41.9878 36.3370
v  17.3488 41.9878 36.3370
v  17.3489 190.2159 36.3370
v  16.7987 190.2159 36.3369
v  16.7987 41.9878 0.1510
v  16.7987 190.2159 0.1510
v  17.3489 190.2159 0.1510
v  17.3488 41.9878 0.1510
v  -18.1713 41.9878 36.3369
v  -17.6211 41.9878 36.3369
v  -17.6211 190.2159 36.3369
v  -18.1713 190.2159 36.3369
v  -18.1713 41.9878 0.1510
v  -18.1713 190.2159 0.1510
v  -17.6211 190.2159 0.1510
v  -17.6211 41.9878 0.1510
v  -18.2569 153.4661 36.2855
v  -18.2569 153.4661 -36.2752
v  -18.2569 153.0379 -36.2752
v  -18.2569 153.0379 36.2855
v  17.4166 153.4661 36.2855
v  17.4166 153.0379 36.2855
v  17.4167 153.0379 -36.2752
v  17.4167 153.4661 -36.2752
v  -18.2569 115.6904 36.2855
v  -18.2569 115.6904 -36.2752
v  -18.2569 115.2623 -36.2752
v  -18.2569 115.2623 36.2855
v  17.4166 115.6904 36.2855
v  17.4166 115.2623 36.2855
v  17.4167 115.2623 -36.2752
v  17.4167 115.6904 -36.2752
v  -18.2569 77.9148 36.2855
v  -18.2569 77.9148 -36.2752
v  -18.2569 77.4867 -36.2752
v  -18.2569 77.4867 36.2855
v  17.4166 77.9148 36.2855
v  17.4166 77.4867 36.2855
v  17.4167 77.4867 -36.2752
v  17.4167 77.9148 -36.2752
v  -18.2569 41.7075 -36.6413
v  -18.2569 190.5272 -36.6413
v  -18.2569 190.5272 -37.1915
v  -18.2569 41.7075 -37.1915
v  17.4167 41.7075 -36.6413
v  17.4167 41.7075 -37.1915
v  17.4167 190.5272 -37.1915
v  17.4167 190.5272 -36.6413
v  -18.1713 41.9878 -36.2995
v  -18.1713 190.2159 -36.2995
v  -17.6211 190.2159 -36.2995
v  -17.6211 41.9878 -36.2995
v  -18.1713 41.9878 -0.1135
v  -17.6211 41.9878 -0.1135
v  -17.6211 190.2159 -0.1135
v  -18.1713 190.2159 -0.1135
# 72 vertices

vn 0.0000 0.0000 -1.0000
vn -0.0000 -0.0000 1.0000
vn 1.0000 -0.0000 0.0000
vn -1.0000 0.0000 -0.0000
vn 0.0000 -0.0000 -1.0000
vn -0.0000 0.0000 1.0000
vn 1.0000 -0.0000 -0.0000
vn -1.0000 0.0000 0.0000
vn 1.0000 0.0000 0.0000
vn 0.0000 -1.0000 -0.0000
vn 0.0000 1.0000 -0.0000
vn 0.0000 -1.0000 0.0000
vn -0.0000 -1.0000 -0.0000
vn -0.0000 -1.0000 0.0000
vn 0.0000 1.0000 0.0000
# 15 vertex normals

vt 1.0000 0.0000 0.0000
vt 1.0000 1.0000 0.0000
vt 0.0000 1.0000 0.0000
vt 0.0000 0.0000 0.0000
# 4 texture coords

g showcase_closet_glass
usemtl wire_225088199
s 2
f 1/1/1 2/2/1 3/3/1 
f 3/3/1 4/4/1 1/1/1 
s 4
f 5/4/2 6/1/2 7/2/2 
f 7/2/2 8/3/2 5/4/2 
s 16
f 4/4/3 3/1/3 7/2/3 
f 7/2/3 6/3/3 4/4/3 
s 64
f 2/4/4 1/1/4 5/2/4 
f 5/2/4 8/3/4 2/4/4 
s 2
f 9/1/4 10/2/4 11/3/4 
f 11/3/4 12/4/4 9/1/4 
s 4
f 13/4/3 14/1/3 15/2/3 
f 15/2/3 16/3/3 13/4/3 
s 16
f 12/4/5 11/1/5 15/2/5 
f 15/2/5 14/3/5 12/4/5 
s 64
f 10/4/6 9/1/6 13/2/6 
f 13/2/6 16/3/6 10/4/6 
s 2
f 17/1/6 18/4/6 19/3/6 
f 19/3/6 20/2/6 17/1/6 
s 4
f 21/4/5 22/3/5 23/2/5 
f 23/2/5 24/1/5 21/4/5 
s 16
f 18/4/7 24/3/7 23/2/7 
f 23/2/7 19/1/7 18/4/7 
s 64
f 20/4/8 22/3/8 21/2/8 
f 21/2/8 17/1/8 20/4/8 
s 2
f 25/1/6 26/4/6 27/3/6 
f 27/3/6 28/2/6 25/1/6 
s 4
f 29/4/5 30/3/5 31/2/5 
f 31/2/5 32/1/5 29/4/5 
s 16
f 26/4/7 32/3/7 31/2/7 
f 31/2/7 27/1/7 26/4/7 
s 64
f 28/4/8 30/3/8 29/2/8 
f 29/2/8 25/1/8 28/4/8 
s 2
f 33/1/4 34/2/4 35/3/4 
f 35/3/4 36/4/4 33/1/4 
s 4
f 37/4/9 38/1/9 39/2/9 
f 39/2/9 40/3/9 37/4/9 
s 8
f 33/4/6 36/1/6 38/2/6 
f 38/2/6 37/3/6 33/4/6 
s 16
f 36/4/10 35/1/10 39/2/10 
f 39/2/10 38/3/10 36/4/10 
s 32
f 35/4/1 34/1/1 40/2/1 
f 40/2/1 39/3/1 35/4/1 
s 64
f 34/4/11 33/1/11 37/2/11 
f 37/2/11 40/3/11 34/4/11 
s 2
f 41/1/4 42/2/4 43/3/4 
f 43/3/4 44/4/4 41/1/4 
s 4
f 45/4/9 46/1/9 47/2/9 
f 47/2/9 48/3/9 45/4/9 
s 8
f 41/4/6 44/1/6 46/2/6 
f 46/2/6 45/3/6 41/4/6 
s 16
f 44/4/12 43/1/13 47/2/14 
f 47/2/14 46/3/12 44/4/12 
s 32
f 43/4/1 42/1/1 48/2/1 
f 48/2/1 47/3/1 43/4/1 
s 64
f 42/4/15 41/1/15 45/2/15 
f 45/2/15 48/3/15 42/4/15 
s 2
f 49/1/4 50/2/4 51/3/4 
f 51/3/4 52/4/4 49/1/4 
s 4
f 53/4/9 54/1/9 55/2/9 
f 55/2/9 56/3/9 53/4/9 
s 8
f 49/4/6 52/1/6 54/2/6 
f 54/2/6 53/3/6 49/4/6 
s 16
f 52/4/13 51/1/13 55/2/13 
f 55/2/13 54/3/13 52/4/13 
s 32
f 51/4/1 50/1/1 56/2/1 
f 56/2/1 55/3/1 51/4/1 
s 64
f 50/4/11 49/1/11 53/2/11 
f 53/2/11 56/3/11 50/4/11 
s 2
f 57/1/4 58/2/4 59/3/4 
f 59/3/4 60/4/4 57/1/4 
s 4
f 61/4/3 62/1/3 63/2/3 
f 63/2/3 64/3/3 61/4/3 
s 16
f 60/4/5 59/1/5 63/2/5 
f 63/2/5 62/3/5 60/4/5 
s 64
f 58/4/6 57/1/6 61/2/6 
f 61/2/6 64/3/6 58/4/6 
s 2
f 65/1/1 66/2/1 67/3/1 
f 67/3/1 68/4/1 65/1/1 
s 4
f 69/4/2 70/1/2 71/2/2 
f 71/2/2 72/3/2 69/4/2 
s 16
f 68/4/3 67/1/3 71/2/3 
f 71/2/3 70/3/3 68/4/3 
s 64
f 66/4/4 65/1/4 69/2/4 
f 69/2/4 72/3/4 66/4/4 
# 84 faces

