<?xml version="1.0"?>
<svg width="126" height="140" style="background: rgba(255,255,255,0.35)" xmlns="http://www.w3.org/2000/svg" xmlns:svg="http://www.w3.org/2000/svg" xmlns:xlink="http://www.w3.org/1999/xlink">
 <!-- Created with SVG-edit - http://svg-edit.googlecode.com/ -->
 <defs>
  <symbol xmlns:xlink="http://www.w3.org/1999/xlink" xmlns="http://www.w3.org/2000/svg" viewBox="0 0 500 500" id="svg_2">
   <path fill-rule="evenodd" fill="#ffffff" d="m131.889008,150.061005l0,63.597l-27.255997,0c-20.079002,0 -36.343002,16.263 -36.343002,36.341995l0,181.710999c0,20.078003 16.264,36.339996 36.343002,36.339996l290.734024,0c20.077881,0 36.34494,-16.261993 36.34494,-36.339996l0,-181.710999c0,-20.078995 -16.267059,-36.341995 -36.34494,-36.341995l-27.25412,0l0,-63.597c0,-65.232002 -52.882019,-118.111008 -118.111954,-118.111008s-118.112,52.877998 -118.112,118.111008l0.000015,0l0.000015,0l0.000015,0zm45.427994,63.597l0,-63.597c0,-40.157005 32.524994,-72.684998 72.682999,-72.684998c40.15799,0 72.684998,32.528 72.684998,72.684998l0,63.597l-145.367996,0zm36.341003,99.940994c0,-20.078003 16.263,-36.341003 36.341995,-36.341003s36.341003,16.263 36.341003,36.341003c0,12.812012 -6.634003,24.07901 -16.625,30.528992c0,0 3.549988,21.446014 7.541992,46.699005c0,7.537994 -6.087006,13.625 -13.628998,13.625l-27.258011,0c-7.541,0 -13.626999,-6.087006 -13.626999,-13.625l7.541992,-46.699005c-9.991989,-6.449982 -16.627991,-17.717987 -16.627991,-30.528992l0.000015,0z" clip-rule="evenodd" id="svg_1"/>
  </symbol>
 </defs>
 <g>
  <title>Layer 1</title>
  <use x="98.061579" y="128.796424" transform="matrix(0.515681, 0, 0, 0.51064, -20.0576, -31.5139)" xlink:href="#svg_2" id="svg_3"/>
  <g id="svg_4"/>
 </g>
</svg>