<svg width="56.693" height="56.693" xmlns="http://www.w3.org/2000/svg">

 <g>
  <title>background</title>
  <rect fill="none" id="canvas_background" height="402" width="582" y="-1" x="-1"/>
 </g>
 <g>
  <title>Layer 1</title>
  <path id="svg_3" d="m37.094383,32.438c-1.58,-1.119 -3.016,-2.76 -3.041,-3.264c0,-0.918 0.082,-1.357 2.141,-2.961c2.662,-2.084 4.128,-4.824 4.128,-7.719c0,-2.625 -0.802,-4.957 -2.167,-6.595l1.059,0c0.219,0 0.434,-0.068 0.609,-0.196l2.955,-2.141c0.367,-0.263 0.521,-0.732 0.381,-1.161c-0.141,-0.428 -0.537,-0.72 -0.988,-0.72l-13.216,0c-1.446,0 -2.915,0.255 -4.357,0.751c-4.816,1.661 -8.184,5.765 -8.184,9.978c0,5.969 4.624,10.493 10.805,10.635c-0.121,0.473 -0.182,0.939 -0.182,1.396c0,0.92 0.233,1.791 0.713,2.633c-0.056,0 -0.11,0 -0.17,0c-5.892,0 -11.21,2.891 -13.229,7.193c-0.526,1.119 -0.794,2.25 -0.794,3.367c0,1.086 0.279,2.131 0.826,3.113c1.269,2.27 3.994,4.031 7.677,4.961c1.901,0.48 3.944,0.725 6.065,0.725c1.906,0 3.723,-0.246 5.403,-0.732c5.238,-1.521 8.625,-5.377 8.625,-9.828c-0.001,-4.271 -1.374,-6.828 -5.059,-9.435zm-16.691,9.777c0,-3.107 3.947,-5.832 8.446,-5.832l0.121,0c0.979,0.012 1.934,0.156 2.834,0.432c0.309,0.213 0.607,0.416 0.893,0.611c2.084,1.42 3.461,2.357 3.844,3.861c0.09,0.379 0.135,0.758 0.135,1.125c0,3.869 -2.885,5.83 -8.578,5.83c-4.315,0 -7.695,-2.646 -7.695,-6.027zm4.094,-29.357c0.703,-0.803 1.624,-1.227 2.658,-1.227l0.117,0.002c2.921,0.086 5.716,3.341 6.23,7.256c0.289,2.192 -0.199,4.253 -1.301,5.509c-0.705,0.805 -1.613,1.229 -2.689,1.229c0,0 0,0 -0.002,0l-0.047,0c-2.861,-0.088 -5.716,-3.467 -6.227,-7.377c-0.287,-2.186 0.173,-4.151 1.261,-5.392z" fill="#ffffff"/>
 </g>
</svg>