<?xml version="1.0" encoding="UTF-8" ?>
<!DOCTYPE svg PUBLIC "-//W3C//DTD SVG 1.1//EN" "http://www.w3.org/Graphics/SVG/1.1/DTD/svg11.dtd">
<svg width="448pt" height="512pt" viewBox="0 0 448 512" version="1.1" xmlns="http://www.w3.org/2000/svg">
<g id="#ffffffff">
<path fill="#fffec2" opacity="1.00" d=" M 222.22 0.00 L 224.83 0.00 C 229.87 0.47 234.90 1.86 239.12 4.75 C 243.36 7.47 246.44 11.50 249.75 15.21 C 311.50 85.48 373.25 155.75 435.01 226.02 C 439.30 231.18 444.74 235.85 446.59 242.56 C 448.00 246.58 446.17 251.33 442.57 253.54 C 438.27 256.32 432.96 256.70 427.98 256.89 C 391.79 256.90 355.61 256.86 319.42 256.91 C 319.41 328.93 319.42 400.95 319.41 472.96 C 319.41 476.66 319.50 480.37 319.09 484.05 C 317.84 493.66 312.95 503.31 304.37 508.30 C 300.55 510.64 296.09 511.47 291.71 512.00 L 156.30 512.00 C 150.73 511.46 145.08 509.94 140.68 506.32 C 132.21 499.65 128.35 488.49 128.58 477.95 C 128.56 404.29 128.57 330.63 128.57 256.97 C 92.35 256.91 56.13 256.98 19.91 256.94 C 15.17 256.72 10.18 256.35 5.98 253.91 C 2.30 251.92 0.08 247.35 1.23 243.25 C 2.93 236.21 8.59 231.29 13.07 225.96 C 74.98 155.57 136.81 85.11 198.73 14.72 C 202.18 10.80 205.51 6.59 210.15 3.99 C 213.80 1.70 218.04 0.74 222.22 0.00 M 128.17 193.28 C 149.45 193.44 170.73 193.29 192.01 193.35 C 192.05 278.35 191.98 363.35 192.04 448.36 C 213.35 448.43 234.66 448.42 255.97 448.36 C 255.99 363.36 255.96 278.35 255.98 193.35 C 277.26 193.30 298.55 193.43 319.83 193.29 C 287.99 156.81 255.95 120.51 223.98 84.14 C 192.02 120.50 160.00 156.81 128.17 193.28 Z" />
</g>
</svg>
