<?xml version="1.0" encoding="UTF-8" ?>
<!DOCTYPE svg PUBLIC "-//W3C//DTD SVG 1.1//EN" "http://www.w3.org/Graphics/SVG/1.1/DTD/svg11.dtd">
<svg width="512pt" height="384pt" viewBox="0 0 512 384" version="1.1" xmlns="http://www.w3.org/2000/svg">
<g id="#ffffffff">
<path fill="#fffec2" opacity="1.00" d=" M 212.48 0.00 L 481.64 0.00 C 490.02 0.55 498.73 3.09 504.78 9.21 C 509.32 13.64 511.64 19.93 512.00 26.19 L 512.00 357.84 C 511.63 364.11 509.27 370.37 504.75 374.83 C 498.71 380.91 490.01 383.40 481.66 384.00 L 213.41 384.00 C 194.84 382.54 175.70 376.94 161.48 364.45 C 111.05 314.57 60.72 264.57 10.34 214.63 C 4.08 208.73 0.24 200.37 0.00 191.76 L 0.00 190.22 C 0.27 181.86 3.88 173.72 9.88 167.90 C 60.17 118.51 110.49 69.14 160.82 19.79 C 174.84 7.09 194.02 1.71 212.48 0.00 M 248.40 100.43 C 241.56 107.28 234.68 114.09 227.87 120.96 C 222.62 126.28 222.78 135.64 228.09 140.85 C 245.14 157.90 262.19 174.94 279.24 191.98 C 262.20 209.05 245.11 226.07 228.06 243.13 C 222.73 248.33 222.70 257.70 227.89 263.01 C 234.89 270.05 241.90 277.08 248.93 284.09 C 254.12 289.13 263.11 289.31 268.40 284.34 C 285.65 267.20 302.77 249.93 320.02 232.79 C 337.05 249.81 354.06 266.84 371.07 283.87 C 376.14 289.06 385.11 289.42 390.53 284.59 C 396.46 278.83 402.23 272.90 408.10 267.07 C 410.72 264.36 413.89 261.88 415.11 258.16 C 417.12 253.04 415.65 246.98 411.86 243.09 C 394.84 226.09 377.85 209.06 360.84 192.05 C 377.93 174.74 395.27 157.66 412.40 140.37 C 417.71 134.70 416.99 124.97 411.13 119.95 C 404.42 113.27 397.75 106.54 391.04 99.85 C 385.88 94.84 376.85 94.69 371.61 99.66 C 354.38 116.80 337.24 134.00 320.04 151.16 C 302.73 134.09 285.66 116.75 268.40 99.61 C 262.90 94.52 253.46 94.87 248.40 100.43 Z" />
</g>
</svg>
