<?xml version="1.0" encoding="UTF-8" standalone="no"?>
<svg
   xmlns:dc="http://purl.org/dc/elements/1.1/"
   xmlns:cc="http://creativecommons.org/ns#"
   xmlns:rdf="http://www.w3.org/1999/02/22-rdf-syntax-ns#"
   xmlns:svg="http://www.w3.org/2000/svg"
   xmlns="http://www.w3.org/2000/svg"
   version="1.1"
   id="svg2"
   viewBox="0 0 60.000003 86.999997"
   height="87"
   width="60">
  <defs
     id="defs4" />
  <metadata
     id="metadata7">
    <rdf:RDF>
      <cc:Work
         rdf:about="">
        <dc:format>image/svg+xml</dc:format>
        <dc:type
           rdf:resource="http://purl.org/dc/dcmitype/StillImage" />
        <dc:title></dc:title>
      </cc:Work>
    </rdf:RDF>
  </metadata>
  <g
     transform="translate(0,-965.36226)"
     id="layer1">
    <g
       transform="matrix(0.37659305,0,0,0.37659305,0.17875318,965.77213)"
       id="g3429">
      <g
         id="#00ab99ff">
        <path
           style="opacity:1;fill:#00ab99"
           d="m 78.31,0 2.21,0 c 18.29,0.33 36.37,7.24 50.13,19.29 17.03,14.56 27.24,36.66 27.35,59.07 l 0,1.31 c -0.22,13.27 -3.87,26.23 -8.87,38.45 -11.77,28.03 -29.65,53.05 -49.2,76.15 -3.98,4.58 -7.89,9.26 -12.32,13.42 -4.65,4.42 -12.67,4.39 -17.29,-0.06 -4.31,-4.05 -8.11,-8.6 -11.99,-13.05 C 41.67,175.05 26.5,154.08 14.83,131.17 6.83,115.12 0.34,97.79 0,79.66 L 0,78.33 C 0.1,55.68 10.56,33.37 27.9,18.81 41.8,6.86 59.99,0.12 78.31,0 m -3.94,26.56 c -8.9,0.81 -17.59,3.88 -24.97,8.94 -13.62,9.18 -22.51,25.01 -23.02,41.46 -0.59,12.78 3.72,25.71 11.87,35.57 9.57,11.85 24.52,19.17 39.76,19.3 12.75,0.34 25.52,-4.28 35.17,-12.6 11.38,-9.62 18.33,-24.27 18.47,-39.18 0.35,-14.4 -5.6,-28.81 -16,-38.77 C 104.92,30.65 89.4,25.19 74.37,26.56 Z"
           id="path3413" />
        <path
           style="opacity:1;fill:#00ab99"
           d="m 72.42,53.58 c 14.05,-4.11 29.9,5.99 32.4,20.34 3.2,13.81 -6.9,28.72 -20.81,31.1 C 70.61,108 56.2,98.53 53.36,85.17 49.8,71.73 58.93,56.74 72.42,53.58 m -3.94,7.56 c -2.45,2.46 -4.92,4.89 -7.34,7.38 3.49,3.49 6.99,6.97 10.46,10.48 -3.46,3.51 -6.97,6.99 -10.46,10.48 2.41,2.49 4.89,4.91 7.33,7.38 3.56,-3.44 7,-7 10.53,-10.47 3.56,3.46 6.95,7.08 10.57,10.46 2.4,-2.49 4.89,-4.89 7.29,-7.38 -3.49,-3.48 -7,-6.96 -10.46,-10.47 3.46,-3.53 7.01,-6.98 10.46,-10.52 -2.45,-2.45 -4.9,-4.89 -7.34,-7.34 -3.54,3.45 -6.99,7 -10.52,10.47 -3.53,-3.47 -6.98,-7.02 -10.52,-10.47 z"
           id="path3415" />
      </g>
      <g
         id="#ffffffff-3">
        <path
           style="opacity:1;fill:#ffffff"
           d="m 68.48,61.14 c 3.54,3.45 6.99,7 10.52,10.47 3.53,-3.47 6.98,-7.02 10.52,-10.47 2.44,2.45 4.89,4.89 7.34,7.34 -3.45,3.54 -7,6.99 -10.46,10.52 3.46,3.51 6.97,6.99 10.46,10.47 -2.4,2.49 -4.89,4.89 -7.29,7.38 -3.62,-3.38 -7.01,-7 -10.57,-10.46 -3.53,3.47 -6.97,7.03 -10.53,10.47 -2.44,-2.47 -4.92,-4.89 -7.33,-7.38 3.49,-3.49 7,-6.97 10.46,-10.48 -3.47,-3.51 -6.97,-6.99 -10.46,-10.48 2.42,-2.49 4.89,-4.92 7.34,-7.38 z"
           id="path3418" />
      </g>
      <g
         id="#000000ff-3">
        <path
           style="opacity:0.2;fill:#000000"
           d="m 34.03,202.08 c 7.43,-4.26 15.94,-6.08 24.3,-7.5 3.88,4.45 7.68,9 11.99,13.05 4.62,4.45 12.64,4.48 17.29,0.06 4.43,-4.16 8.34,-8.84 12.32,-13.42 9.07,1.16 18.27,3.09 26.4,7.44 3.48,2 7.56,4.81 7.63,9.28 -0.15,5.03 -5,7.88 -8.93,10 -11.97,5.73 -25.42,7.13 -38.5,8.01 l -12.81,0 c -12.83,-0.99 -26.02,-2.36 -37.76,-8.01 -3.93,-2.12 -8.78,-4.98 -8.92,-10.01 0.05,-4.19 3.73,-6.96 6.99,-8.9 z"
           id="path3421" />
      </g>
    </g>
  </g>
</svg>
