<?xml version="1.0" encoding="UTF-8" standalone="no"?>
<svg
   xmlns:dc="http://purl.org/dc/elements/1.1/"
   xmlns:cc="http://creativecommons.org/ns#"
   xmlns:rdf="http://www.w3.org/1999/02/22-rdf-syntax-ns#"
   xmlns:svg="http://www.w3.org/2000/svg"
   xmlns="http://www.w3.org/2000/svg"
   version="1.1"
   id="svg2"
   viewBox="0 0 60.000003 86.999997"
   height="87"
   width="60">
  <defs
     id="defs4" />
  <metadata
     id="metadata7">
    <rdf:RDF>
      <cc:Work
         rdf:about="">
        <dc:format>image/svg+xml</dc:format>
        <dc:type
           rdf:resource="http://purl.org/dc/dcmitype/StillImage" />
        <dc:title></dc:title>
      </cc:Work>
    </rdf:RDF>
  </metadata>
  <g
     transform="translate(0,-965.36226)"
     id="layer1">
    <g
       transform="matrix(0.37657134,0,0,0.37657134,0.20563832,965.77818)"
       id="g3375">
      <g
         id="#00ab99ff">
        <path
           style="opacity:1;fill:#00ab99"
           d="m 78.36,0 2.1,0 c 18.31,0.31 36.42,7.22 50.19,19.3 17.03,14.55 27.23,36.64 27.35,59.03 l 0,1.24 c -0.21,13.85 -4.16,27.35 -9.49,40.04 -11.81,27.42 -29.36,51.97 -48.58,74.66 -3.98,4.59 -7.9,9.26 -12.32,13.42 -4.62,4.39 -12.57,4.39 -17.2,0.03 -4.34,-4.07 -8.18,-8.66 -12.08,-13.14 C 41.68,175.06 26.51,154.1 14.84,131.19 6.84,115.13 0.33,97.77 0,79.62 L 0,78.38 C 0.08,55.74 10.52,33.44 27.83,18.87 41.75,6.88 59.99,0.11 78.36,0 m -3.99,26.56 c -8.88,0.8 -17.55,3.87 -24.92,8.9 -13.65,9.18 -22.56,25.03 -23.06,41.5 -0.6,12.78 3.71,25.71 11.87,35.57 9.55,11.83 24.48,19.15 39.7,19.3 12.78,0.35 25.58,-4.28 35.25,-12.62 11.37,-9.63 18.3,-24.28 18.44,-39.19 C 131.99,65.64 126.05,51.25 115.66,41.3 104.93,30.66 89.41,25.19 74.37,26.56 Z"
           id="path3362" />
        <path
           style="opacity:1;fill:#00ab99"
           d="m 72.42,53.58 c 14.04,-4.1 29.86,5.96 32.38,20.29 C 108.04,87.67 97.97,102.6 84.07,105 70.65,108.03 56.17,98.53 53.36,85.13 49.81,71.7 58.94,56.73 72.42,53.58 Z"
           id="path3364" />
      </g>
      <g
         id="#000000ff-9">
        <path
           style="opacity:0.2;fill:#000000"
           d="m 34.03,202.08 c 7.43,-4.26 15.94,-6.08 24.3,-7.5 3.9,4.48 7.74,9.07 12.08,13.14 4.63,4.36 12.58,4.36 17.2,-0.03 4.42,-4.16 8.34,-8.83 12.32,-13.42 10.21,1.4 20.87,3.45 29.49,9.43 3.41,2.18 5.89,6.68 3.73,10.57 -2.64,4.35 -7.55,6.6 -12.08,8.47 -11.05,4.24 -22.95,5.53 -34.68,6.26 l -12.46,0 c -12.89,-0.96 -26.15,-2.34 -37.95,-8 -3.93,-2.12 -8.79,-4.98 -8.95,-10.01 0.05,-4.19 3.73,-6.97 7,-8.91 z"
           id="path3367" />
      </g>
    </g>
  </g>
</svg>
