<?xml version="1.0" encoding="UTF-8" ?>
<!DOCTYPE svg PUBLIC "-//W3C//DTD SVG 1.1//EN" "http://www.w3.org/Graphics/SVG/1.1/DTD/svg11.dtd">
<svg width="173pt" height="173pt" viewBox="0 0 173 173" version="1.1" xmlns="http://www.w3.org/2000/svg">
<g id="#838383ff">
<path fill="#838383" opacity="1.00" d=" M 21.51 0.00 L 21.52 0.00 C 43.34 21.46 64.75 43.37 86.59 64.81 C 107.24 44.08 127.98 23.43 148.64 2.71 C 149.06 1.40 151.71 1.45 151.34 0.00 L 151.70 0.00 C 151.68 0.14 151.63 0.43 151.61 0.57 C 159.05 7.20 165.67 14.74 173.00 21.49 L 173.00 21.49 C 151.53 43.25 129.82 64.79 108.18 86.39 C 129.61 108.23 151.49 129.66 173.00 151.43 L 173.00 151.56 C 165.67 158.53 158.56 165.77 151.49 173.00 L 151.49 173.00 C 129.75 151.52 108.22 129.83 86.62 108.21 C 65.67 128.71 45.10 149.64 24.31 170.34 C 23.89 171.62 21.31 171.56 21.65 173.00 L 21.28 173.00 C 21.80 171.57 19.31 171.36 18.83 170.20 C 13.00 164.33 7.14 158.49 1.30 152.64 C 0.97 152.45 0.32 152.07 0.00 151.87 L 0.00 151.59 C 0.67 150.73 1.40 149.92 2.18 149.17 C 23.09 128.35 43.86 107.39 64.82 86.63 C 43.39 64.83 21.63 43.31 0.00 21.70 L 0.00 21.69 C 7.12 14.41 14.50 7.38 21.51 0.00 Z" />
</g>
</svg>
