<?xml version="1.0" encoding="UTF-8" ?>
<!DOCTYPE svg PUBLIC "-//W3C//DTD SVG 1.1//EN" "http://www.w3.org/Graphics/SVG/1.1/DTD/svg11.dtd">
<svg width="55pt" height="62pt" viewBox="0 0 55 62" version="1.1" xmlns="http://www.w3.org/2000/svg">
<g id="#d6fa5bff">
<path fill="#d6fa5b" opacity="1.00" d=" M 0.00 0.00 L 38.00 0.00 C 38.01 7.79 37.98 15.58 38.02 23.37 C 42.05 23.28 41.58 17.34 45.15 16.30 C 48.51 17.02 51.75 18.21 55.00 19.31 L 55.00 27.97 C 54.26 27.94 52.78 27.88 52.04 27.85 C 52.05 25.85 52.08 23.84 52.10 21.84 C 50.98 21.46 49.85 21.08 48.73 20.71 C 50.86 28.89 52.70 37.14 55.00 45.26 L 55.00 45.97 C 54.29 45.98 52.88 46.00 52.17 46.01 C 50.60 41.58 49.01 37.15 47.62 32.66 C 46.27 34.40 44.57 36.02 43.87 38.16 C 43.65 40.76 43.82 43.37 43.81 45.98 C 43.08 45.99 41.62 46.00 40.89 46.01 C 40.92 43.32 40.87 40.64 40.89 37.96 C 40.57 34.14 43.43 31.18 44.90 27.90 C 44.48 26.37 44.09 24.84 43.71 23.30 C 43.26 24.02 42.36 25.46 41.91 26.17 C 40.61 26.16 39.31 26.14 38.01 26.13 C 37.99 35.01 38.00 43.89 38.00 52.78 C 33.62 52.71 29.25 52.73 24.87 52.73 C 24.89 55.82 24.88 58.91 24.85 62.00 L 23.71 62.00 C 15.88 58.78 7.89 55.93 0.00 52.86 L 0.00 0.00 M 15.90 6.49 C 18.65 8.10 22.03 8.35 24.64 10.19 C 25.19 22.23 24.74 34.41 24.86 46.51 C 27.24 46.58 29.63 46.58 32.02 46.51 C 31.96 33.15 32.03 19.79 31.99 6.44 C 26.62 6.56 21.26 6.31 15.90 6.49 Z" />
<path fill="#d6fa5b" opacity="1.00" d=" M 38.82 12.99 C 39.61 11.22 41.60 8.76 43.62 10.46 C 46.28 11.85 44.96 16.18 42.09 16.03 C 40.27 16.31 39.65 14.14 38.82 12.99 Z" />
</g>
</svg>
