<?xml version="1.0" encoding="UTF-8" ?>
<!DOCTYPE svg PUBLIC "-//W3C//DTD SVG 1.1//EN" "http://www.w3.org/Graphics/SVG/1.1/DTD/svg11.dtd">
<svg width="91pt" height="128pt" viewBox="0 0 91 128" version="1.1" xmlns="http://www.w3.org/2000/svg">
<g id="#ffffffff">
<path fill="#ffffff" opacity="1.00" d=" M 43.55 0.00 L 46.53 0.00 C 58.32 0.33 69.89 5.42 78.00 14.02 C 86.16 22.49 90.77 34.23 90.62 45.99 C 90.48 57.96 86.56 69.55 81.35 80.21 C 74.82 93.35 66.22 105.46 56.08 116.06 C 52.41 119.94 48.93 123.98 45.42 128.00 L 45.34 128.00 C 41.29 122.94 37.08 118.00 32.72 113.21 C 23.59 102.70 15.75 91.06 9.50 78.62 C 4.93 69.30 1.13 59.36 0.29 48.93 C -0.78 35.68 4.33 22.09 13.92 12.86 C 21.77 5.09 32.54 0.54 43.55 0.00 M 39.58 25.66 C 31.55 27.97 25.46 35.61 25.00 43.95 C 24.30 52.02 28.92 60.19 36.17 63.79 C 42.51 67.08 50.57 66.65 56.51 62.68 C 62.10 59.09 65.69 52.64 65.82 46.00 C 66.05 39.54 63.02 33.08 57.90 29.13 C 52.83 25.10 45.77 23.78 39.58 25.66 Z" />
</g>
</svg>
