<?xml version="1.0" encoding="UTF-8" ?>
<!DOCTYPE svg PUBLIC "-//W3C//DTD SVG 1.1//EN" "http://www.w3.org/Graphics/SVG/1.1/DTD/svg11.dtd">
<svg width="53pt" height="62pt" viewBox="0 0 53 62" version="1.1" xmlns="http://www.w3.org/2000/svg">
<g id="#faa55aff">
<path fill="#faa55a" opacity="1.00" d=" M 0.00 0.00 L 38.00 0.00 C 38.00 7.33 38.00 14.67 38.00 22.00 C 35.99 22.00 33.99 22.00 31.98 22.00 C 32.01 16.83 31.99 11.66 32.02 6.48 C 26.62 6.50 21.23 6.33 15.84 6.50 C 18.74 7.83 21.90 8.58 24.70 10.14 C 25.21 22.12 24.60 34.14 24.98 46.12 C 26.98 47.11 29.71 46.36 31.98 46.57 C 32.01 41.38 32.01 36.19 31.98 31.00 C 33.99 31.00 35.99 31.00 38.00 31.00 C 38.00 38.26 38.00 45.51 38.00 52.77 C 33.62 52.71 29.25 52.73 24.87 52.73 C 24.88 55.82 24.88 58.91 24.86 62.00 L 23.73 62.00 C 15.88 58.78 7.88 55.96 0.00 52.83 L 0.00 0.00 Z" />
<path fill="#faa55a" opacity="1.00" d=" M 43.03 16.04 C 46.36 19.41 49.71 22.76 53.00 26.18 L 53.00 26.51 C 49.59 29.75 46.50 33.32 43.03 36.50 C 43.00 34.00 43.00 31.50 42.99 29.00 C 37.66 29.00 32.33 29.00 27.00 29.00 C 27.00 27.33 27.00 25.67 27.00 24.00 C 32.33 24.00 37.66 24.00 42.99 24.00 C 43.00 21.34 43.00 18.69 43.03 16.04 Z" />
</g>
</svg>
