<?xml version="1.0" encoding="UTF-8" ?>
<!DOCTYPE svg PUBLIC "-//W3C//DTD SVG 1.1//EN" "http://www.w3.org/Graphics/SVG/1.1/DTD/svg11.dtd">
<svg width="455pt" height="512pt" viewBox="0 0 455 512" version="1.1" xmlns="http://www.w3.org/2000/svg">
<g id="#ffffffff">
<path fill="#ffffff" opacity="1.00" d=" M 368.11 0.00 L 372.66 0.00 C 392.12 0.73 411.25 8.21 425.85 21.12 C 443.67 36.56 454.46 59.63 455.00 83.19 L 455.00 88.68 C 454.21 105.22 448.77 121.56 439.03 134.99 C 426.38 152.78 406.66 165.36 385.17 169.23 C 361.72 173.70 336.63 167.58 317.78 152.97 C 268.32 182.64 218.86 212.32 169.41 242.01 C 171.00 251.25 170.98 260.72 169.41 269.97 C 218.87 299.65 268.32 329.34 317.78 359.02 C 330.54 349.22 346.06 343.03 362.11 341.66 C 383.04 339.74 404.58 345.90 421.26 358.70 C 441.89 374.19 454.70 399.41 455.00 425.22 L 455.00 429.72 C 454.23 448.45 447.30 466.90 435.21 481.27 C 419.78 500.00 396.07 511.46 371.81 512.00 L 368.17 512.00 C 347.41 511.66 326.90 503.45 311.73 489.25 C 290.89 470.26 280.63 440.47 285.59 412.68 C 236.12 382.99 186.67 353.28 137.18 323.63 C 122.11 335.26 103.08 341.69 84.02 341.30 C 65.34 341.08 46.82 334.47 32.25 322.79 C 13.03 307.70 1.07 284.06 0.00 259.67 L 0.00 254.11 C 0.43 229.11 12.56 204.68 32.20 189.22 C 47.04 177.31 65.98 170.65 85.01 170.67 C 103.75 170.50 122.37 176.94 137.20 188.35 C 186.66 158.67 236.13 129.00 285.59 99.30 C 280.43 70.56 291.65 39.73 313.84 20.82 C 328.75 7.80 348.32 0.33 368.11 0.00 Z" />
</g>
</svg>
