<?xml version="1.0" encoding="UTF-8" standalone="no"?>
<svg
   xmlns:dc="http://purl.org/dc/elements/1.1/"
   xmlns:cc="http://creativecommons.org/ns#"
   xmlns:rdf="http://www.w3.org/1999/02/22-rdf-syntax-ns#"
   xmlns:svg="http://www.w3.org/2000/svg"
   xmlns="http://www.w3.org/2000/svg"
   version="1.1"
   id="svg2"
   viewBox="0 0 60.000003 86.999997"
   height="87"
   width="60">
  <defs
     id="defs4" />
  <metadata
     id="metadata7">
    <rdf:RDF>
      <cc:Work
         rdf:about="">
        <dc:format>image/svg+xml</dc:format>
        <dc:type
           rdf:resource="http://purl.org/dc/dcmitype/StillImage" />
        <dc:title></dc:title>
      </cc:Work>
    </rdf:RDF>
  </metadata>
  <g
     transform="translate(0,-965.36226)"
     id="layer1">
    <g
       transform="matrix(0.37651229,0,0,0.37651229,0.24356246,965.77618)"
       id="g3352">
      <g
         id="#e00069ff">
        <path
           style="opacity:1;fill:#e00069"
           d="m 78.3,0 1.38,0 c 18.59,0.11 37.03,7.06 51.01,19.33 16.99,14.54 27.18,36.59 27.31,58.95 l 0,1.41 c -0.23,13.8 -4.16,27.24 -9.47,39.89 -11.82,27.43 -29.38,51.99 -48.61,74.69 -3.98,4.59 -7.9,9.28 -12.33,13.44 -5.72,5.49 -15.36,3.61 -19.82,-2.55 -3.21,-3.47 -6.4,-6.97 -9.44,-10.58 C 47.01,181.39 36.53,167.48 27.19,152.82 13.57,130.94 1.14,106.86 0,80.6 L 0,78.32 C 0.11,55.93 10.32,33.85 27.34,19.3 41.31,7.05 59.73,0.12 78.3,0 M 67.5,27.64 c -9.67,2.17 -18.72,7.1 -25.68,14.16 -10.08,9.92 -15.81,24.08 -15.47,38.22 0.12,14.91 7.07,29.56 18.43,39.19 9.66,8.33 22.44,12.96 35.2,12.62 15.47,-0.13 30.63,-7.68 40.18,-19.83 9.63,-11.89 13.55,-28.12 10.51,-43.1 C 127.96,54.67 118.98,41.81 106.65,34.24 95.13,27.04 80.74,24.62 67.5,27.64 Z"
           id="path3339" />
        <path
           style="opacity:1;fill:#e00069"
           d="m 72.46,53.57 c 14.01,-4.07 29.8,5.97 32.34,20.26 3.26,13.82 -6.83,28.79 -20.77,31.18 -13.41,3 -27.86,-6.49 -30.67,-19.88 -3.55,-13.44 5.6,-28.42 19.1,-31.56 z"
           id="path3341" />
      </g>
      <g
         id="#000000ff">
        <path
           style="opacity:0.2;fill:#000000"
           d="m 34.08,202.05 c 7.41,-4.24 15.91,-6.05 24.25,-7.47 3.04,3.61 6.23,7.11 9.44,10.58 4.46,6.16 14.1,8.04 19.82,2.55 4.43,-4.16 8.35,-8.85 12.33,-13.44 8.17,0.98 16.33,2.78 23.87,6.13 3.38,1.67 6.9,3.59 9.05,6.8 1.78,2.69 1.31,6.48 -0.89,8.79 -2.75,3.02 -6.48,4.94 -10.21,6.49 -11.18,4.44 -23.27,5.75 -35.19,6.52 l -12.93,0 c -12.79,-1.01 -25.95,-2.37 -37.65,-8.01 -3.93,-2.11 -8.76,-4.96 -8.94,-9.97 0.04,-4.22 3.75,-7.02 7.05,-8.97 z"
           id="path3344" />
      </g>
    </g>
  </g>
</svg>
