<?xml version="1.0" encoding="UTF-8" standalone="no"?>
<svg
   xmlns:dc="http://purl.org/dc/elements/1.1/"
   xmlns:cc="http://creativecommons.org/ns#"
   xmlns:rdf="http://www.w3.org/1999/02/22-rdf-syntax-ns#"
   xmlns:svg="http://www.w3.org/2000/svg"
   xmlns="http://www.w3.org/2000/svg"
   version="1.1"
   id="svg2"
   viewBox="0 0 60.000003 86.999997"
   height="87"
   width="60">
  <defs
     id="defs4" />
  <metadata
     id="metadata7">
    <rdf:RDF>
      <cc:Work
         rdf:about="">
        <dc:format>image/svg+xml</dc:format>
        <dc:type
           rdf:resource="http://purl.org/dc/dcmitype/StillImage" />
        <dc:title></dc:title>
      </cc:Work>
    </rdf:RDF>
  </metadata>
  <g
     transform="translate(0,-965.36226)"
     id="layer1">
    <g
       transform="matrix(0.37663761,0,0,0.37663761,0.18754322,965.77887)"
       id="g3401">
      <g
         id="#e00069ff">
        <path
           style="opacity:1;fill:#e00069"
           d="m 78.22,0 1.52,0 c 18.55,0.13 36.95,7.07 50.91,19.29 17.01,14.55 27.22,36.61 27.35,58.99 l 0,1.49 c -0.25,13.79 -4.18,27.21 -9.49,39.85 -11.81,27.41 -29.36,51.96 -48.58,74.65 -3.97,4.57 -7.88,9.24 -12.3,13.4 -4.62,4.42 -12.63,4.42 -17.26,0.01 -4.33,-4.07 -8.15,-8.63 -12.04,-13.11 C 46.54,180.84 35.64,166.32 26.03,150.98 12.94,129.61 1.09,106.14 0,80.64 L 0,78.3 C 0.11,55.92 10.32,33.85 27.33,19.3 41.28,7.07 59.67,0.14 78.22,0 M 67.48,27.65 C 57.58,29.86 48.34,35 41.3,42.32 c -9.76,9.89 -15.28,23.81 -14.95,37.7 0.12,14.92 7.08,29.58 18.45,39.21 9.66,8.32 22.44,12.95 35.2,12.6 15.48,-0.13 30.65,-7.71 40.2,-19.87 9.61,-11.9 13.51,-28.13 10.46,-43.1 C 127.94,54.66 119,41.85 106.71,34.28 95.18,27.04 80.76,24.61 67.48,27.65 Z"
           id="path3385" />
        <path
           style="opacity:1;fill:#e00069"
           d="m 72.43,53.58 c 14.03,-4.09 29.83,5.96 32.37,20.27 3.25,13.8 -6.82,28.75 -20.74,31.16 -13.44,3.02 -27.92,-6.5 -30.72,-19.93 -3.51,-13.42 5.62,-28.35 19.09,-31.5 m -3.95,7.56 c -2.44,2.44 -4.88,4.9 -7.34,7.32 3.43,3.57 7,7 10.46,10.54 -3.44,3.57 -7.09,6.94 -10.45,10.59 2.48,2.38 4.89,4.81 7.29,7.27 3.6,-3.41 7.01,-7.01 10.57,-10.47 3.5,3.48 6.98,6.99 10.48,10.47 2.48,-2.44 4.96,-4.89 7.37,-7.4 C 93.35,85.99 89.87,82.5 86.4,79 c 3.45,-3.55 7.05,-6.96 10.46,-10.56 -2.47,-2.4 -4.9,-4.84 -7.31,-7.3 -3.58,3.42 -7.01,7.01 -10.56,10.47 -3.51,-3.48 -6.97,-7.02 -10.51,-10.47 z"
           id="path3387" />
      </g>
      <g
         id="#ffffffff">
        <path
           style="opacity:1;fill:#ffffff"
           d="m 68.48,61.14 c 3.54,3.45 7,6.99 10.51,10.47 3.55,-3.46 6.98,-7.05 10.56,-10.47 2.41,2.46 4.84,4.9 7.31,7.3 -3.41,3.6 -7.01,7.01 -10.46,10.56 3.47,3.5 6.95,6.99 10.46,10.46 -2.41,2.51 -4.89,4.96 -7.37,7.4 C 85.99,93.38 82.51,89.87 79.01,86.39 75.45,89.85 72.04,93.45 68.44,96.86 66.04,94.4 63.63,91.97 61.15,89.59 64.51,85.94 68.16,82.57 71.6,79 68.14,75.46 64.57,72.03 61.14,68.46 c 2.46,-2.42 4.9,-4.88 7.34,-7.32 z"
           id="path3390" />
      </g>
      <g
         id="#000000ff">
        <path
           style="opacity:0.2;fill:#000000"
           d="m 33.39,202.47 c 7.55,-4.57 16.35,-6.4 24.94,-7.9 3.89,4.48 7.71,9.04 12.04,13.11 4.63,4.41 12.64,4.41 17.26,-0.01 4.42,-4.16 8.33,-8.83 12.3,-13.4 8.18,1 16.36,2.78 23.92,6.16 3.37,1.66 6.87,3.59 9.01,6.8 1.76,2.69 1.28,6.45 -0.91,8.77 -2.73,2.99 -6.44,4.9 -10.13,6.45 -11.2,4.45 -23.32,5.78 -35.25,6.55 l -13.04,0 C 60.78,227.98 47.67,226.62 36,221.01 c -3.93,-2.12 -8.78,-4.96 -8.97,-9.98 0.01,-3.93 3.3,-6.68 6.36,-8.56 z"
           id="path3393" />
      </g>
    </g>
  </g>
</svg>
