o house_int_01_f1_floor2.js
v -174.85549926757812 80 35.092201232910156
v 15.617400169372559 80 35.092201232910156
v 15.617400169372559 80 1.0164999961853027
v -174.85549926757812 80 35.092201232910156
v 15.617400169372559 80 1.0164999961853027
v 15.617400169372559 80 -85.30909729003906
v -174.85549926757812 80 35.092201232910156
v 15.617400169372559 80 -85.30909729003906
v 15.617400169372559 80 -175.63690185546875
v -174.85549926757812 80 35.092201232910156
v 15.617400169372559 80 -175.63690185546875
v -174.85549926757812 80 -175.63690185546875
v 15.617400169372559 80 -85.30909729003906
v 15.617400169372559 80 1.0164999961853027
v 23.752599716186523 80 1.0164999961853027
v 23.752599716186523 80 1.0164999961853027
v 23.752599716186523 80 -85.30909729003906
v 15.617400169372559 80 -85.30909729003906
vt 0.019999999552965164 0.9771000146865845
vt 0.019999999552965164 0.7476000189781189
vt 0.06109999865293503 0.7476000189781189
vt 0.019999999552965164 0.9771000146865845
vt 0.06109999865293503 0.7476000189781189
vt 0.16509999334812164 0.7476000189781189
vt 0.019999999552965164 0.9771000146865845
vt 0.16509999334812164 0.7476000189781189
vt 0.27390000224113464 0.7476000189781189
vt 0.019999999552965164 0.9771000146865845
vt 0.27390000224113464 0.7476000189781189
vt 0.27390000224113464 0.9771000146865845
vt 0.16509999334812164 0.7476000189781189
vt 0.06109999865293503 0.7476000189781189
vt 0.06109999865293503 0.7378000020980835
vt 0.06109999865293503 0.7378000020980835
vt 0.16509999334812164 0.7378000020980835
vt 0.16509999334812164 0.7476000189781189
vn 0 1 0
vn 0 1 0
vn 0 1 0
vn 0 1 0
vn 0 1 0
vn 0 1 0
vn 0 1 0
vn 0 1 0
vn 0 1 0
vn 0 1 0
vn 0 1 0
vn 0 1 0
vn 0 1 0
vn 0 1 0
vn 0 1 0
vn 0 1 0
vn 0 1 0
vn 0 1 0
f 1/1/1 2/2/2 3/3/3
f 4/4/4 5/5/5 6/6/6
f 7/7/7 8/8/8 9/9/9
f 10/10/10 11/11/11 12/12/12
f 13/13/13 14/14/14 15/15/15
f 16/16/16 17/17/17 18/18/18
