o house_ext_01_col.js
usemtl 15___Default
v 224.7949981689453 274.5 562.2109985351562
v -49.571800231933594 274.5 562.2109985351562
v -49.571800231933594 0 562.2109985351562
v -49.571800231933594 0 562.2109985351562
v 224.7949981689453 0 562.2109985351562
v 224.7949981689453 274.5 562.2109985351562
v 224.7949981689453 274.5 472.21099853515625
v 224.7949981689453 274.5 562.2109985351562
v 224.7949981689453 0 562.2109985351562
v 224.7949981689453 0 562.2109985351562
v 224.7949981689453 0 472.21099853515625
v 224.7949981689453 274.5 472.21099853515625
v 551.7949829101562 274.5 472.21099853515625
v 224.7949981689453 274.5 472.21099853515625
v 224.7949981689453 0 472.21099853515625
v 224.7949981689453 0 472.21099853515625
v 551.7949829101562 0 472.21099853515625
v 551.7949829101562 274.5 472.21099853515625
v 551.7949829101562 274.5 -646.156005859375
v 551.7949829101562 274.5 472.21099853515625
v 551.7949829101562 0 472.21099853515625
v 551.7949829101562 0 472.21099853515625
v 551.7949829101562 0 -646.156005859375
v 551.7949829101562 274.5 -646.156005859375
v 158.47000122070312 274.5 -667.77099609375
v 551.7949829101562 274.5 -646.156005859375
v 551.7949829101562 0 -646.156005859375
v 551.7949829101562 0 -646.156005859375
v 158.47000122070312 0 -667.77099609375
v 158.47000122070312 274.5 -667.77099609375
v -466.5719909667969 274.5 -646.156005859375
v 158.47000122070312 274.5 -667.77099609375
v 158.47000122070312 0 -667.77099609375
v 158.47000122070312 0 -667.77099609375
v -466.5719909667969 0 -646.156005859375
v -466.5719909667969 274.5 -646.156005859375
v -466.5719909667969 0 472.21099853515625
v -466.5719909667969 274.5 472.21099853515625
v -466.5719909667969 274.5 -646.156005859375
v -466.5719909667969 274.5 -646.156005859375
v -466.5719909667969 0 -646.156005859375
v -466.5719909667969 0 472.21099853515625
v -159.7220001220703 0 472.21099853515625
v -159.7220001220703 274.5 472.21099853515625
v -466.5719909667969 274.5 472.21099853515625
v -466.5719909667969 274.5 472.21099853515625
v -466.5719909667969 0 472.21099853515625
v -159.7220001220703 0 472.21099853515625
v -49.571800231933594 0 522.1099853515625
v -49.571800231933594 274.5 522.1099853515625
v -114.57099914550781 274.5 502.98199462890625
v -114.57099914550781 274.5 502.98199462890625
v -114.57099914550781 0 502.98199462890625
v -49.571800231933594 0 522.1099853515625
v -114.57099914550781 0 502.98199462890625
v -114.57099914550781 274.5 502.98199462890625
v -159.7220001220703 274.5 472.21099853515625
v -159.7220001220703 274.5 472.21099853515625
v -159.7220001220703 0 472.21099853515625
v -114.57099914550781 0 502.98199462890625
v -49.571800231933594 0 562.2109985351562
v -49.571800231933594 274.5 562.2109985351562
v -49.571800231933594 274.5 522.1099853515625
v -49.571800231933594 274.5 522.1099853515625
v -49.571800231933594 0 522.1099853515625
v -49.571800231933594 0 562.2109985351562
vt 0 0
vt 1 0
vt 1 1
vt 0 0
vt 1 0
vt 1 1
vt 0 0
vt 1 0
vt 1 1
vt 0 0
vt 1 0
vt 1 1
vt 0 0
vt 1 0
vt 1 1
vt 0 0
vt 1 0
vt 1 1
vt 0 0
vt 1 0
vt 1 1
vt 0 0
vt 1 0
vt 1 1
vt 0 0
vt 1 0
vt 1 1
vt 0 0
vt 1 0
vt 1 1
vt 0 0
vt 1 0
vt 1 1
vt 0 0
vt 1 0
vt 1 1
vt 0 0
vt 1 0
vt 1 1
vt 0 0
vt 1 0
vt 1 1
vt 0 0
vt 1 0
vt 1 1
vt 0 0
vt 1 0
vt 1 1
vt 0 0
vt 1 0
vt 1 1
vt 0 0
vt 1 0
vt 1 1
vt 0 0
vt 1 0
vt 1 1
vt 0 0
vt 1 0
vt 1 1
vt 0 0
vt 1 0
vt 1 1
vt 0 0
vt 1 0
vt 1 1
vn 0.707082986831665 0 0.707082986831665
vn -0.707082986831665 0 0.707082986831665
vn -0.707082986831665 0 0.707082986831665
vn -0.707082986831665 0 0.707082986831665
vn 0.707082986831665 0 0.707082986831665
vn 0.707082986831665 0 0.707082986831665
vn 0.707082986831665 0 0.707082986831665
vn 0.707082986831665 0 0.707082986831665
vn 0.707082986831665 0 0.707082986831665
vn 0.707082986831665 0 0.707082986831665
vn 0.707082986831665 0 0.707082986831665
vn 0.707082986831665 0 0.707082986831665
vn 0.707082986831665 0 0.707082986831665
vn 0.707082986831665 0 0.707082986831665
vn 0.707082986831665 0 0.707082986831665
vn 0.707082986831665 0 0.707082986831665
vn 0.707082986831665 0 0.707082986831665
vn 0.707082986831665 0 0.707082986831665
vn 0.7262179851531982 0 -0.6874290108680725
vn 0.707082986831665 0 0.707082986831665
vn 0.707082986831665 0 0.707082986831665
vn 0.707082986831665 0 0.707082986831665
vn 0.7262179851531982 0 -0.6874290108680725
vn 0.7262179851531982 0 -0.6874290108680725
vn 0.010162999853491783 0 -0.9999390244483948
vn 0.7262179851531982 0 -0.6874290108680725
vn 0.7262179851531982 0 -0.6874290108680725
vn 0.7262179851531982 0 -0.6874290108680725
vn 0.010162999853491783 0 -0.9999390244483948
vn 0.010162999853491783 0 -0.9999390244483948
vn -0.719199001789093 0 -0.6947540044784546
vn 0.010162999853491783 0 -0.9999390244483948
vn 0.010162999853491783 0 -0.9999390244483948
vn 0.010162999853491783 0 -0.9999390244483948
vn -0.719199001789093 0 -0.6947540044784546
vn -0.719199001789093 0 -0.6947540044784546
vn -0.707082986831665 0 0.707082986831665
vn -0.707082986831665 0 0.707082986831665
vn -0.719199001789093 0 -0.6947540044784546
vn -0.719199001789093 0 -0.6947540044784546
vn -0.719199001789093 0 -0.6947540044784546
vn -0.707082986831665 0 0.707082986831665
vn -0.29465600848197937 0 0.9555960297584534
vn -0.29465600848197937 0 0.9555960297584534
vn -0.707082986831665 0 0.707082986831665
vn -0.707082986831665 0 0.707082986831665
vn -0.707082986831665 0 0.707082986831665
vn -0.29465600848197937 0 0.9555960297584534
vn -0.8007140159606934 0 0.5990170240402222
vn -0.8007140159606934 0 0.5990170240402222
vn -0.427931010723114 0 0.9038059711456299
vn -0.427931010723114 0 0.9038059711456299
vn -0.427931010723114 0 0.9038059711456299
vn -0.8007140159606934 0 0.5990170240402222
vn -0.427931010723114 0 0.9038059711456299
vn -0.427931010723114 0 0.9038059711456299
vn -0.29465600848197937 0 0.9555960297584534
vn -0.29465600848197937 0 0.9555960297584534
vn -0.29465600848197937 0 0.9555960297584534
vn -0.427931010723114 0 0.9038059711456299
vn -0.707082986831665 0 0.707082986831665
vn -0.707082986831665 0 0.707082986831665
vn -0.8007140159606934 0 0.5990170240402222
vn -0.8007140159606934 0 0.5990170240402222
vn -0.8007140159606934 0 0.5990170240402222
vn -0.707082986831665 0 0.707082986831665
f 1/1/1 2/2/2 3/3/3
f 4/4/4 5/5/5 6/6/6
f 7/7/7 8/8/8 9/9/9
f 10/10/10 11/11/11 12/12/12
f 13/13/13 14/14/14 15/15/15
f 16/16/16 17/17/17 18/18/18
f 19/19/19 20/20/20 21/21/21
f 22/22/22 23/23/23 24/24/24
f 25/25/25 26/26/26 27/27/27
f 28/28/28 29/29/29 30/30/30
f 31/31/31 32/32/32 33/33/33
f 34/34/34 35/35/35 36/36/36
f 37/37/37 38/38/38 39/39/39
f 40/40/40 41/41/41 42/42/42
f 43/43/43 44/44/44 45/45/45
f 46/46/46 47/47/47 48/48/48
f 49/49/49 50/50/50 51/51/51
f 52/52/52 53/53/53 54/54/54
f 55/55/55 56/56/56 57/57/57
f 58/58/58 59/59/59 60/60/60
f 61/61/61 62/62/62 63/63/63
f 64/64/64 65/65/65 66/66/66
